<?xml version="1.0" encoding="utf-8"?>
<!-- Generator: Adobe Illustrator 18.0.0, SVG Export Plug-In . SVG Version: 6.00 Build 0)  -->
<!DOCTYPE svg PUBLIC "-//W3C//DTD SVG 1.1//EN" "http://www.w3.org/Graphics/SVG/1.1/DTD/svg11.dtd">
<svg version="1.1" id="Livello_1" xmlns="http://www.w3.org/2000/svg" xmlns:xlink="http://www.w3.org/1999/xlink" x="0px" y="0px"
	 viewBox="0 0 184.4047 187.5796" enable-background="new 0 0 184.4047 187.5796" xml:space="preserve">
<g>
	<path fill="#FFFFFF" d="M142.6779,99.7794c0.4578-0.446,0.7754-0.7187,1.0505-1.029c2.3169-2.6138,3.336-5.9004,4.7022-9.0147
		c0.9841-2.243,2.109-4.4244,3.1779-6.63c1.3353-2.7554,2.704-5.495,4.0098-8.2643c1.4128-2.9962,2.7541-6.0261,4.1553-9.0279
		c1.5659-3.3545,3.1375-6.707,4.7591-10.0348c0.8793-1.8046,1.9065-3.537,2.7933-5.3382c0.5739-1.1657,1.0148-2.3968,1.515-3.5988
		c0.4297-1.0328,0.9106-2.0478,1.2769-3.1026c0.6645-1.9132,1.2579-3.8511,1.888-5.7764c0.112-0.3423,0.2449-0.6793,0.3918-1.0083
		c0.209-0.4679,0.4528-0.9204,0.659-1.3895c0.6267-1.4261,1.2156-2.8695,1.8706-4.2824c0.5558-1.199,1.2069-2.3536,1.7733-3.548
		c1.0223-2.1559,2.0227-4.3223,3.0087-6.495c0.2171-0.4785,0.3763-0.9925,0.4896-1.5062c0.1145-0.5192-0.1164-0.9429-0.458-1.3594
		c-1.5164-1.8489-4.0616-3.3831-6.661-2.1105c-0.5485,0.2685-1.9121-0.1152-2.2366-0.6306
		c-0.1041-0.1654-0.0672-0.5671,0.0663-0.7101c0.7908-0.8471,1.6406-1.6388,2.4432-2.4754c0.1969-0.2052,0.4-0.5027,0.4136-0.7674
		c0.0456-0.8873,0.5365-1.7036,1.379-2.0179c0.7914-0.2953,1.0021-0.9782,1.1516-1.6745c0.3385-1.5776,0.898-3.0446,1.8491-4.3662
		c0.549-0.7628,0.9885-1.6035,1.5121-2.3858c0.6211-0.9279,1.531-1.3924,2.2219-1.1878c1.2062,0.3571,1.9172,1.4839,2.2234,2.5295
		c0.3065,1.0466,0.3013,2.0418,0.3013,3.0835c0,1.4783-0.5312,2.7924-1.1662,4.0722c-0.4599,0.9269-0.933,1.8473-1.7456,2.5612
		c-0.2327,0.2045-0.2986,0.7175-0.2717,1.0764c0.0792,1.0578,0.297,2.1063,0.3554,3.1642c0.0402,0.7292-0.1945,0.8422-0.8723,0.6817
		c0.587,1.1316,1.5964,2.1747,1.0426,3.6837c-0.0952,0.2595-0.183,0.533-0.3356,0.7583c-0.6552,0.9673-1.1007,2.0271-1.3829,3.1508
		c-0.0462,0.1839,0.1304,0.6038,0.2503,0.6228c2.2889,0.3633,2.5829,1.772,2.6158,3.6423c0.0375,2.1324-0.6987,4.1823-2.017,5.8827
		c-1.7731,2.2871-3.7968,4.3836-5.5148,6.7083c-1.0845,1.4675-1.8003,3.2062-2.6948,4.8158
		c-0.5139,0.9248-1.1396,1.7972-1.5647,2.7595c-0.7737,1.7516-1.677,3.4946-1.4213,5.5134c0.0307,0.2423,0.2455,0.4594,0.366,0.6929
		c0.0658,0.1274,0.1409,0.2598,0.1635,0.3978c0.1052,0.6435-0.4283,1.4324-1.0236,1.5354
		c-0.6806,0.1177-1.5252-0.3481-1.5593-1.0223c-0.0715-1.4146-0.381-2.828,0.5088-4.2026c0.7507-1.1598,1.1638-2.5333,1.7918-3.7791
		c0.3717-0.7374,0.9042-1.392,1.3048-2.1169c0.6852-1.2399,1.3158-2.5098,1.9833-3.7596c1.5371-2.8781,3.6138-5.324,5.8586-7.6826
		c1.5972-1.6782,2.5786-3.7717,2.3823-6.2257c-0.0636-0.7948-0.569-1.2922-1.365-1.1906c-0.7315,0.0933-1.4683,0.3316-1.835,1.0535
		c-0.7606,1.4974-1.4045,3.058-2.2293,4.5175c-0.5561,0.984-0.5646,2.0887-0.9582,3.0781
		c-0.3799,0.9549-1.0303,1.8003-1.5422,2.7049c-0.5438,0.961-1.1208,1.9092-1.5793,2.9107
		c-0.4559,0.9958-0.7548,2.0622-1.1724,3.0771c-0.6897,1.6765-1.3934,3.3482-2.1408,4.9995
		c-0.5598,1.2367-1.1975,2.438-1.8006,3.6551c-1.0196,2.0576-2.0568,4.1066-3.0539,6.175
		c-1.0784,2.2368-2.1188,4.4919-3.1767,6.7386c-0.8622,1.831-1.741,3.6544-2.5847,5.4939
		c-1.0683,2.3292-2.0677,4.6909-3.1738,7.0018c-0.8969,1.8738-1.9596,3.6684-2.8492,5.5453
		c-0.5728,1.2086-0.9502,2.5087-1.444,3.7564c-0.3476,0.8784-0.7665,1.7289-1.1086,2.6092
		c-0.1824,0.4692-0.2748,0.9741-0.3969,1.4656c-0.0488,0.1963-0.0073,0.4408-0.1103,0.5937
		c-0.8624,1.2804-0.6835,2.9135-1.3775,4.2031c-0.5638,1.0477-1.4628,1.9282-2.2786,2.8232
		c-0.725,0.7954-1.5578,1.4918-2.3004,2.2725c-0.1541,0.162-0.1886,0.5094-0.1629,0.7595c0.2601,2.5357-0.8739,4.2875-3.035,5.4705
		c-0.6288,0.3442-2.1064,0.2162-2.5946-0.2648c-0.1412-0.1391-0.2094-0.4788-0.1488-0.6769
		c0.6994-2.2865,1.3296-4.617,3.2711-6.2538c0.1662-0.1401,0.3529-0.2637,0.5469-0.3616c0.367-0.1852,0.4146-0.4723,0.1671-0.736
		c-0.5789-0.6168-0.4454-1.3161-0.2954-2.0166c0.2675-1.2497,0.3948-2.4671,0.1191-3.7663
		c-0.2498-1.177-0.1862-2.4235-0.2239-3.6405c-0.0091-0.2941,0.0958-0.6045,0.2023-0.8871c0.3811-1.0114,0.7536-2.028,1.1883-3.0168
		c0.6687-1.521,1.3658-3.0304,2.087-4.5273c1.3855-2.8757,2.773-5.7509,4.2065-8.6027c0.719-1.4304,1.6095-2.7762,2.3006-4.2186
		c1.0328-2.1554,1.9922-4.3479,2.9208-6.5507c1.293-3.0672,2.5322-6.157,3.7876-9.2399c0.7478-1.8363,1.4938-3.6735,2.2197-5.5185
		c0.6504-1.653,1.3136-3.303,1.895-4.9807c0.5903-1.7033,1.1195-3.4297,1.6192-5.1621c1.2164-4.2177,2.3628-8.4535,4.0912-12.5079
		c0.5524-1.2957,0.8373-2.7035,1.2825-4.0475c0.198-0.5977,0.4527-1.185,0.7586-1.7342c0.1117-0.2005,0.4434-0.3698,0.6798-0.3767
		c0.1513-0.0044,0.3716,0.2893,0.4583,0.493c0.3819,0.8969,0.0204,2.152-0.9321,2.8324c-0.2298,0.1641-0.3908,0.4829-0.4893,0.7636
		c-1.3664,3.8938-2.7263,7.79-4.0664,11.6929c-0.7754,2.2585-1.5226,4.5268-2.263,6.797c-0.5164,1.5835-0.9809,3.1841-1.5113,4.7627
		c-0.1309,0.3896-0.5206,0.697-0.6319,1.0876c-0.3257,1.1425-0.8701,2.1825-1.3372,3.2632
		c-1.1587,2.6811-2.2879,5.3804-3.2825,8.1254c-1.015,2.801-2.5906,5.3496-3.5888,8.1352
		c-0.6871,1.9174-1.8078,3.5868-2.5888,5.4343c-0.4486,1.0611-0.6674,2.1855-1.2505,3.2294
		c-1.1402,2.0412-2.0892,4.1941-3.0392,6.3354c-1.0478,2.3617-2.0353,4.7514-2.9867,7.1537
		c-0.2378,0.6003-0.2377,1.2304-0.0051,1.9509c0.3013,0.9336,0.2629,1.9999,0.2468,3.0071
		c-0.0207,1.2965-0.1953,2.5901-0.2379,3.887C142.3432,98.6108,142.5271,99.0593,142.6779,99.7794z M177.3694,11.1703
		c-0.0747,0.645,0.2006,0.9481,0.8721,0.8713c1.1412-0.1305,2.2518-0.4971,2.9671-1.405c1.576-2.0003,2.2072-4.3082,1.7744-6.8461
		c-0.0831-0.4876-0.315-0.9675-0.5594-1.4056c-0.3524-0.6318-1.5779-0.4121-2.1414,0.3508
		C178.4328,5.2391,177.4439,8.0438,177.3694,11.1703z M180.4042,16.8197c-0.3304-1.0466-0.6608-2.0932-1.007-3.19
		c-0.2246,0.0265-0.4468,0.0917-0.6607,0.0709c-0.8262-0.0801-1.6955-0.0537-2.4634-0.3164
		c-1.163-0.3978-1.2077-0.4668-2.0595,0.6837C176.6374,14.2303,178.7904,14.8731,180.4042,16.8197z"/>
</g>
<g>
	<path fill="#FFFFFF" d="M116.8626,171.906c-1.2825,1.4238-2.4687,2.7935-3.7144,4.1067c-0.9747,1.0276-3.4654,2.8186-3.6248,2.8801
		c-0.2589,0.0999-0.5223,0.2775-0.6951,0.4933c-0.4151,0.5184-0.6995,1.1634-1.1769,1.6062
		c-1.9732,1.83-4.0591,3.5415-5.9873,5.4161c-1.8608,1.8092-3.9704,1.52-4.9728-0.852c-2.0156-4.7696-4.4952-9.2607-7.9482-13.1539
		c-3.1967-3.6042-6.4135-7.1913-9.6716-10.74c-2.6759-2.9146-5.4699-5.7213-8.1268-8.6527
		c-1.8413-2.0315-3.7794-4.0434-5.217-6.3492c-0.9861-1.5816-2.2485-2.7798-3.4207-4.1357
		c-0.9743-1.1271-1.4458-2.6735-2.3212-3.9055c-1.1341-1.5962-2.4861-3.0357-3.6757-4.5949
		c-1.7601-2.3071-3.4637-4.6574-5.1842-6.9946c-1.2422-1.6876-2.4867-3.3738-3.7042-5.0793
		c-1.077-1.5085-2.0802-3.071-3.1897-4.5545c-0.6164-0.8242-1.427-1.5007-2.075-2.3042c-2.0438-2.5342-4.0374-5.1089-6.0793-7.6446
		c-1.5116-1.8771-3.0874-3.7026-4.5955-5.5825c-0.5923-0.7383-1.0668-1.5699-1.6146-2.3452
		c-1.2955-1.8333-2.5777-3.6769-3.9153-5.4792c-0.7328-0.9874-1.5315-1.932-2.3632-2.8384
		c-1.5579-1.698-3.1854-3.3325-4.7333-5.0393c-0.5597-0.6172-0.9326-1.4001-1.4626-2.0487
		c-2.0142-2.4647-4.0302-4.9291-6.0997-7.3472c-1.5009-1.7538-3.2096-3.342-4.5965-5.1773
		c-1.1097-1.4684-2.3393-2.1299-4.1836-2.2433c-0.8413-0.0518-1.7197-1.0086-2.3963-1.7288
		c-0.5018-0.5341,0.7137-2.41,1.6256-2.3308c2.0941,0.1818,3.4702-1.2359,5.0368-2.1121c2.2134-1.238,4.2443-2.8027,6.3525-4.2286
		c2.7917-1.8882,5.5867-3.7715,8.3731-5.6674c3.4844-2.3708,6.9777-4.7291,10.4341-7.1402
		c1.4788-1.0316,2.8335-2.2419,4.3186-3.2634c1.5699-1.0797,3.239-2.0139,4.8445-3.0434c1.969-1.2626,3.916-2.5593,5.8743-3.8385
		c0.8103-0.5293,1.6668-0.9979,2.4293-1.5882c1.6144-1.25,3.2096-2.5288,4.7537-3.8639c0.6631-0.5733,1.4281-0.9817,2.0835-1.441
		c0.7685-0.5386,1.5272-1.227,2.361-1.7996c2.1601-1.4836,4.234-3.092,6.3687-4.6136c2.8993-2.0666,5.8194-4.1042,8.7396-6.1414
		c0.6395-0.4462,1.3991-0.7508,1.9572-1.2759c0.8384-0.7889,1.5854-1.6852,2.3012-2.5912c0.6906-0.874,1.3102-0.9705,2.1366-0.1601
		c1.2371,1.2134,2.2141,2.5187,3.03,4.1109c1.2155,2.372,2.9138,4.5219,4.5749,6.6341c2.2569,2.87,4.6692,5.6179,7.0208,8.4131
		c3.0348,3.6073,6.0846,7.2021,9.1047,10.8216c0.487,0.5836,0.8203,1.2935,1.2878,1.896c0.2751,0.3546,0.7111,0.5803,1.0124,0.9194
		c1.6778,1.8878,3.3133,3.8135,5.0072,5.6866c2.688,2.9725,5.4435,5.8844,8.1093,8.8765c2.6693,2.996,5.261,6.0611,7.8917,9.0916
		c2.3003,2.6499,4.6146,5.2878,6.9098,7.9421c2.9288,3.3871,5.8237,6.8038,8.7789,10.1676c0.8931,1.0166,1.9797,1.861,2.9057,2.8515
		c2.8661,3.0658,5.7311,6.134,8.5306,9.2603c1.8711,2.0896,3.5921,4.3131,5.4499,6.4152c1.737,1.9653,3.5881,3.8292,5.3489,5.774
		c2.3996,2.6504,4.7387,5.3556,7.148,7.9969c1.2877,1.4117,2.6446,2.763,4.0134,4.0972c1.5231,1.4846,3.0952,2.9189,4.6172,4.3481
		c-0.628,1.0515-1.2504,1.6396-2.3706,1.9905c-1.2169,0.3812-2.2138,1.4452-3.3325,2.1716c-0.3469,0.2253-6.149,4.007-7.7659,4.4308
		c-1.2169,0.319-2.3251,0.6303-3.3131,1.3624c-1.1041,0.8182-2.1626,1.6979-3.2661,2.5169c-0.366,0.2717-0.81,0.4382-1.3074,0.6996
		c-0.8554,0.3597-1.8161,0.6812-2.6947,1.1549c-1.0263,0.5533-2.0322,1.174-2.9489,1.8909
		c-0.6178,0.4832-1.1071,1.1534-1.5761,1.7968c-0.3379,0.4635-0.2639,0.479-0.8382,0.1123
		c-0.1446-0.0923-0.4855-0.0316-0.6491,0.0831c-2.5211,1.7682-5.0103,3.5824-7.5458,5.3294
		c-1.1439,0.7882-2.4115,1.3969-3.5554,2.1849c-1.8079,1.2454-3.5847,2.5399-5.3262,3.8767
		c-1.4353,1.1018-2.7537,2.3589-4.213,3.4252c-0.9777,0.7144-2.1617,1.1425-3.1608,1.8327
		C126.0156,163.3495,117.1306,172.4069,116.8626,171.906z M37.5831,106.7761c0.2361,0.2601,0.4249,0.4402,0.5816,0.6447
		c3.1468,4.1072,6.2846,8.2213,9.4353,12.3255c2.4482,3.1891,4.9591,6.3313,7.3538,9.5598
		c2.1232,2.8625,4.0858,5.8436,6.1885,8.7218c3.8533,5.2743,7.8868,10.4005,12.4177,15.1258
		c3.4056,3.5517,6.7277,7.1841,10.0532,10.8116c2.595,2.8308,5.2174,5.643,7.6767,8.5894c1.7026,2.0398,3.1866,4.2676,4.6964,6.4608
		c1.1092,1.6113,2.102,3.3028,3.1782,5.0086c0.551-0.3772,0.9704-0.6145,1.3319-0.9203c1.7413-1.4732,3.4087-3.0402,5.211-4.4334
		c3.1307-2.42,6.3953-4.6681,9.5018-7.1176c2.6393-2.0812,5.1112-4.3733,7.6999-6.5205c3.1075-2.5776,6.4261-4.9255,9.3503-7.693
		c3.4089-3.2263,7.3998-5.6143,11.0753-8.4475c3.027-2.3333,9.5552-6.7241,9.6617-6.7761c1.1244-0.5492,5.427-3.0884,6.5043-3.7367
		c1.7251-1.0383,3.434-2.1035,5.1549-3.1488c1.179-0.7162,2.3622-1.4258,3.5519-2.1242c1.1854-0.6959,2.3963-1.3499,3.5653-2.072
		c0.4816-0.2975,0.8549-0.7663,1.3263-1.0848c1.0916-0.7374,2.213-1.4308,3.4316-2.2121c-0.3588-0.5502-0.5691-0.9707-0.868-1.3143
		c-1.3855-1.5924-2.8026-3.1574-4.1953-4.7436c-1.8134-2.0653-3.6007-4.1536-5.4244-6.2097
		c-2.3252-2.6215-4.6955-5.2032-7.0102-7.8338c-3.1516-3.5817-6.2297-7.2286-9.4132-10.7815
		c-2.6786-2.9894-5.5218-5.8319-8.1861-8.8335c-3.8349-4.3204-7.5695-8.7296-11.3546-13.0942
		c-3.1598-3.6436-6.3017-7.3033-9.5058-10.9076c-2.5867-2.9099-5.2558-5.7466-7.8855-8.6185
		c-1.6906-1.8463-3.4211-3.6588-5.0492-5.5588c-1.2811-1.4951-2.3658-3.1595-3.658-4.644
		c-1.9285-2.2154-4.0181-4.2913-5.9324-6.5183c-1.2393-1.4418-2.2044-3.119-3.441-4.5636c-2.167-2.5316-4.4941-4.9259-6.6689-7.4511
		c-2.2776-2.6446-4.5337-5.3154-6.6505-8.0883c-1.6058-2.1034-1.6567-2.1406-4.0924-1.2903
		c-3.2989,1.1517-5.8937,3.4501-8.8027,5.2209c-3.1432,1.9134-6.0801,4.1722-9.0591,6.346
		c-1.8999,1.3864-3.7132,2.8915-5.5633,4.3459c-0.0765,0.0601-0.1324,0.1465-0.2242,0.2506
		c-0.0497-0.263-0.0873-0.4618-0.1526-0.8079c-0.3953,0.6311-0.5975,1.2571-1.027,1.5874c-1.9062,1.4655-3.8279,2.922-5.8358,4.242
		c-4.2726,2.8087-8.6505,5.4589-12.8947,8.3088c-4.0113,2.6935-7.899,5.5703-11.8564,8.3448
		c-1.9071,1.337-3.8846,2.5754-5.7676,3.9446c-3.1834,2.3149-6.317,4.6982-9.5174,7.087c1.0833,2.0123,2.0164,4.1715,3.3273,6.0699
		c1.5584,2.2569,3.4098,4.3164,5.1914,6.4129c2.5221,2.9679,5.0883,5.8985,7.652,8.8308c1.3221,1.5122,2.6732,2.9993,4.0296,4.4809
		c0.1498,0.1637,0.4302,0.201,0.6344,0.3231c0.5188,0.3103,1.2196,0.5186,1.5017,0.9794c0.5578,0.9112,0.7472,2.0546,1.3333,2.9403
		c0.9673,1.4617,2.0074,2.9167,3.243,4.1475c1.1661,1.1615,2.5919,2.0773,3.9637,3.0128
		C38.4542,104.0931,38.6701,105.8425,37.5831,106.7761z"/>
</g>
<g>
	<g>
		<path fill="#FFFFFF" d="M130.5134,114.1004c0.4767,3.2968-7.7963,5.8438-9.87,6.7648c-3.77,1.6743-7.6424,3.0819-11.5772,4.3122
			c-6.9847,2.1839-14.3131,3.1675-21.6109,2.5384c-13.9202-1.2-25.5261-9.9279-29.0795-23.5379
			c-0.9034-3.46-1.3045-7.0976-1.5491-10.6553c-0.2657-3.8634,1.445-12.8624,8.0988-6.4852
			c4.1685,3.9952,1.7453,10.2139-2.4203,12.7973c-4.1986,2.6038-8.9033-0.3425-11.8572-3.2227
			c-5.1789-5.0498-7.1599-13.062-8.4538-19.918c-0.7176-3.8025-0.9135-7.71-0.6601-11.5643
			c0.3758-5.7159,5.4149-12.8882,11.8589-9.4409c1.7052,0.9122,3.2204-1.6776,1.5142-2.5904
			c-8.8635-4.7416-15.3118,4.115-16.3731,12.0313c-1.4337,10.6949,2.4002,24.0772,9.008,32.4998
			c5.5937,7.13,15.4904,8.3396,20.9419,0.5411c4.0574-5.8042-1.5127-19.8241-9.8164-15.7869
			c-8.0558,3.9166-4.4654,17.6858-2.7654,24.1971c2.4967,9.5627,9.7619,17.1107,18.793,20.8648
			c10.8445,4.5078,22.2202,4.0777,33.4279,1.127c6.5735-1.7307,12.8702-4.5089,19.0073-7.3891
			c3.4878-1.6369,6.8939-3.6065,6.2759-7.8807C133.1302,111.3943,130.2399,112.2089,130.5134,114.1004L130.5134,114.1004z"/>
	</g>
</g>
</svg>
