<?xml version="1.0" encoding="utf-8"?>
<!-- Generator: Adobe Illustrator 18.0.0, SVG Export Plug-In . SVG Version: 6.00 Build 0)  -->
<!DOCTYPE svg PUBLIC "-//W3C//DTD SVG 1.1//EN" "http://www.w3.org/Graphics/SVG/1.1/DTD/svg11.dtd">
<svg version="1.1" id="Livello_1" xmlns="http://www.w3.org/2000/svg" xmlns:xlink="http://www.w3.org/1999/xlink" x="0px" y="0px"
	 viewBox="0 0 180.8485 175.6167" enable-background="new 0 0 180.8485 175.6167" xml:space="preserve">
<g>
	<path fill="#FFFFFF" d="M116.8626,159.9431c-1.2825,1.4238-2.4687,2.7935-3.7144,4.1067
		c-0.9747,1.0276-3.4654,2.8186-3.6248,2.8801c-0.2589,0.0999-0.5223,0.2775-0.6951,0.4933
		c-0.4151,0.5184-0.6995,1.1634-1.1769,1.6062c-1.9732,1.83-4.0591,3.5415-5.9873,5.4161c-1.8608,1.8092-3.9704,1.52-4.9728-0.852
		c-2.0156-4.7696-4.4952-9.2607-7.9482-13.1539c-3.1967-3.6042-6.4135-7.1913-9.6716-10.74
		c-2.6759-2.9146-5.4699-5.7213-8.1268-8.6527c-1.8413-2.0315-3.7794-4.0434-5.217-6.3492
		c-0.9861-1.5816-2.2485-2.7798-3.4207-4.1357c-0.9743-1.1271-1.4458-2.6735-2.3212-3.9055
		c-1.1341-1.5962-2.4861-3.0357-3.6757-4.5949c-1.7601-2.3071-3.4637-4.6574-5.1842-6.9946
		c-1.2422-1.6876-2.4867-3.3738-3.7042-5.0793c-1.077-1.5085-2.0802-3.071-3.1897-4.5545c-0.6164-0.8242-1.427-1.5007-2.075-2.3042
		c-2.0438-2.5342-4.0374-5.1089-6.0793-7.6446c-1.5116-1.8771-3.0874-3.7026-4.5955-5.5825
		c-0.5923-0.7383-1.0668-1.5699-1.6146-2.3452c-1.2955-1.8333-2.5777-3.6769-3.9153-5.4792
		c-0.7328-0.9874-1.5315-1.932-2.3632-2.8384c-1.5579-1.698-3.1854-3.3325-4.7333-5.0393
		c-0.5597-0.6172-0.9326-1.4001-1.4626-2.0487c-2.0142-2.4647-4.0302-4.9291-6.0997-7.3472
		c-1.5009-1.7538-3.2096-3.342-4.5965-5.1773c-1.1097-1.4684-2.3393-2.1299-4.1836-2.2433
		c-0.8413-0.0518-1.7197-1.0086-2.3963-1.7287c-0.5018-0.5341,0.7137-2.41,1.6256-2.3308c2.0941,0.1818,3.4702-1.2359,5.0368-2.1121
		c2.2134-1.238,4.2443-2.8027,6.3525-4.2286c2.7917-1.8882,5.5867-3.7715,8.3731-5.6674c3.4844-2.3708,6.9777-4.7291,10.4341-7.1402
		c1.4788-1.0316,2.8335-2.2419,4.3186-3.2634c1.5699-1.0797,3.239-2.0139,4.8445-3.0434c1.969-1.2625,3.916-2.5593,5.8743-3.8385
		c0.8103-0.5293,1.6668-0.9979,2.4293-1.5882c1.6144-1.25,3.2096-2.5288,4.7537-3.8639c0.6631-0.5733,1.4281-0.9817,2.0835-1.441
		c0.7685-0.5386,1.5272-1.227,2.361-1.7996c2.1601-1.4836,4.234-3.092,6.3687-4.6136c2.8993-2.0666,5.8194-4.1041,8.7396-6.1414
		c0.6395-0.4462,1.3991-0.7508,1.9572-1.2759c0.8384-0.7889,1.5854-1.6852,2.3012-2.5912c0.6906-0.874,1.3102-0.9705,2.1366-0.1601
		c1.2371,1.2134,2.2141,2.5187,3.03,4.1109c1.2155,2.372,2.9138,4.5219,4.5749,6.6341c2.2569,2.87,4.6692,5.6179,7.0208,8.4131
		c3.0348,3.6073,6.0846,7.2021,9.1047,10.8216c0.487,0.5836,0.8203,1.2935,1.2878,1.896c0.2751,0.3546,0.7111,0.5803,1.0124,0.9194
		c1.6778,1.8878,3.3133,3.8135,5.0072,5.6866c2.688,2.9725,5.4435,5.8844,8.1093,8.8765c2.6693,2.996,5.261,6.0611,7.8917,9.0916
		c2.3003,2.65,4.6146,5.2878,6.9098,7.9421c2.9288,3.3871,5.8237,6.8038,8.7789,10.1676c0.8931,1.0166,1.9797,1.861,2.9057,2.8515
		c2.8661,3.0658,5.7311,6.134,8.5306,9.2603c1.8711,2.0896,3.5921,4.3131,5.4499,6.4152c1.737,1.9653,3.5881,3.8292,5.3489,5.774
		c2.3996,2.6504,4.7387,5.3556,7.148,7.9969c1.2877,1.4117,2.6446,2.763,4.0134,4.0972c1.5231,1.4846,3.0952,2.9189,4.6172,4.3481
		c-0.628,1.0515-1.2504,1.6396-2.3706,1.9905c-1.2169,0.3812-2.2138,1.4452-3.3325,2.1716c-0.3469,0.2253-6.149,4.007-7.7659,4.4308
		c-1.2169,0.319-2.3251,0.6303-3.3131,1.3624c-1.1041,0.8182-2.1626,1.6979-3.2661,2.5169c-0.366,0.2717-0.81,0.4382-1.3074,0.6996
		c-0.8554,0.3597-1.8161,0.6812-2.6947,1.1549c-1.0263,0.5533-2.0322,1.174-2.9489,1.8909
		c-0.6178,0.4832-1.1071,1.1534-1.5761,1.7968c-0.3379,0.4635-0.2639,0.479-0.8382,0.1123
		c-0.1446-0.0923-0.4855-0.0316-0.6491,0.0831c-2.5211,1.7682-5.0103,3.5824-7.5458,5.3294
		c-1.1439,0.7882-2.4115,1.3969-3.5554,2.1849c-1.8079,1.2454-3.5847,2.5399-5.3262,3.8768
		c-1.4353,1.1018-2.7537,2.3589-4.213,3.4252c-0.9777,0.7144-2.1617,1.1425-3.1608,1.8327
		C126.0156,151.3866,117.1306,160.444,116.8626,159.9431z M37.5831,94.8132c0.2361,0.2601,0.4249,0.4402,0.5816,0.6447
		c3.1468,4.1072,6.2846,8.2213,9.4353,12.3255c2.4482,3.1891,4.9591,6.3313,7.3538,9.5598
		c2.1232,2.8625,4.0858,5.8437,6.1885,8.7218c3.8533,5.2743,7.8868,10.4005,12.4177,15.1258
		c3.4056,3.5517,6.7277,7.1841,10.0532,10.8116c2.595,2.8308,5.2174,5.643,7.6767,8.5894c1.7026,2.0398,3.1866,4.2676,4.6964,6.4608
		c1.1092,1.6113,2.102,3.3028,3.1782,5.0086c0.551-0.3772,0.9704-0.6145,1.3319-0.9203c1.7413-1.4732,3.4087-3.0402,5.211-4.4334
		c3.1307-2.42,6.3953-4.6681,9.5018-7.1176c2.6393-2.0812,5.1112-4.3733,7.6999-6.5205c3.1075-2.5776,6.4261-4.9255,9.3503-7.693
		c3.4089-3.2263,7.3998-5.6143,11.0753-8.4475c3.027-2.3333,9.5552-6.7241,9.6617-6.7761c1.1244-0.5492,5.427-3.0884,6.5043-3.7367
		c1.7251-1.0383,3.434-2.1035,5.1549-3.1488c1.179-0.7162,2.3622-1.4258,3.5519-2.1242c1.1854-0.6959,2.3963-1.3499,3.5653-2.072
		c0.4816-0.2975,0.8549-0.7663,1.3263-1.0848c1.0916-0.7374,2.213-1.4308,3.4316-2.2121c-0.3588-0.5502-0.5691-0.9707-0.868-1.3143
		c-1.3855-1.5924-2.8026-3.1574-4.1953-4.7436c-1.8134-2.0653-3.6007-4.1536-5.4244-6.2097
		c-2.3252-2.6215-4.6955-5.2032-7.0102-7.8338c-3.1516-3.5817-6.2297-7.2286-9.4132-10.7815
		c-2.6786-2.9894-5.5218-5.8319-8.1861-8.8335c-3.8349-4.3204-7.5695-8.7296-11.3546-13.0942
		c-3.1598-3.6436-6.3017-7.3032-9.5058-10.9076c-2.5867-2.9099-5.2558-5.7466-7.8855-8.6185
		c-1.6906-1.8463-3.4211-3.6588-5.0492-5.5588c-1.2811-1.4951-2.3658-3.1595-3.658-4.644
		c-1.9285-2.2154-4.0181-4.2913-5.9324-6.5183c-1.2393-1.4418-2.2044-3.1191-3.441-4.5636
		c-2.167-2.5316-4.4941-4.9259-6.6689-7.4511c-2.2776-2.6446-4.5337-5.3154-6.6505-8.0883
		c-1.6058-2.1034-1.6567-2.1406-4.0924-1.2903c-3.2989,1.1517-5.8937,3.4501-8.8027,5.2209
		c-3.1432,1.9134-6.0801,4.1722-9.0591,6.346c-1.8999,1.3864-3.7132,2.8915-5.5633,4.3459
		c-0.0765,0.0601-0.1324,0.1465-0.2242,0.2506c-0.0497-0.263-0.0873-0.4618-0.1526-0.8079
		c-0.3953,0.6311-0.5975,1.2571-1.027,1.5874c-1.9062,1.4655-3.8279,2.922-5.8358,4.242
		c-4.2726,2.8087-8.6505,5.4589-12.8947,8.3088c-4.0113,2.6935-7.899,5.5703-11.8564,8.3448
		c-1.9071,1.337-3.8846,2.5754-5.7676,3.9446c-3.1834,2.3149-6.317,4.6982-9.5174,7.087c1.0833,2.0123,2.0164,4.1715,3.3273,6.0699
		c1.5584,2.2569,3.4098,4.3164,5.1914,6.4129c2.5221,2.9679,5.0883,5.8985,7.652,8.8308c1.3221,1.5122,2.6732,2.9993,4.0296,4.4809
		c0.1498,0.1637,0.4302,0.201,0.6344,0.3231c0.5188,0.3103,1.2196,0.5186,1.5017,0.9794c0.5578,0.9112,0.7472,2.0546,1.3333,2.9403
		c0.9673,1.4617,2.0074,2.9167,3.243,4.1475c1.1661,1.1615,2.5919,2.0773,3.9637,3.0128
		C38.4542,92.1302,38.6701,93.8796,37.5831,94.8132z"/>
</g>
</svg>
