<?xml version="1.0" encoding="utf-8"?>
<!-- Generator: Adobe Illustrator 18.0.0, SVG Export Plug-In . SVG Version: 6.00 Build 0)  -->
<!DOCTYPE svg PUBLIC "-//W3C//DTD SVG 1.1//EN" "http://www.w3.org/Graphics/SVG/1.1/DTD/svg11.dtd">
<svg version="1.1" id="Livello_1" xmlns="http://www.w3.org/2000/svg" xmlns:xlink="http://www.w3.org/1999/xlink" x="0px" y="0px"
	 viewBox="0 0 95.2445 79.0442" enable-background="new 0 0 95.2445 79.0442" xml:space="preserve">
<g>
	<g>
		<path fill="#FFFFFF" d="M92.2786,62.3324c0.4767,3.2968-7.7963,5.8438-9.87,6.7648c-3.77,1.6743-7.6424,3.0819-11.5772,4.3122
			c-6.9847,2.1839-14.3131,3.1675-21.6109,2.5384c-13.9202-1.2-25.5261-9.9279-29.0795-23.5379
			c-0.9034-3.46-1.3045-7.0976-1.5491-10.6553c-0.2657-3.8634,1.445-12.8624,8.0988-6.4852
			c4.1685,3.9952,1.7453,10.2139-2.4203,12.7973c-4.1986,2.6038-8.9033-0.3425-11.8572-3.2227
			c-5.1789-5.0498-7.1599-13.062-8.4539-19.918c-0.7176-3.8025-0.9135-7.71-0.6601-11.5643
			C3.6751,7.6459,8.7142,0.4736,15.1582,3.9208c1.7052,0.9122,3.2204-1.6776,1.5142-2.5904
			C7.8089-3.4112,1.3605,5.4454,0.2993,13.3618c-1.4337,10.6949,2.4002,24.0772,9.008,32.4998
			c5.5937,7.13,15.4904,8.3396,20.9419,0.5411c4.0574-5.8042-1.5127-19.8241-9.8164-15.7869
			c-8.0558,3.9166-4.4654,17.6858-2.7654,24.1971c2.4967,9.5627,9.7619,17.1107,18.793,20.8647
			c10.8445,4.5078,22.2202,4.0777,33.4279,1.127c6.5735-1.7307,12.8702-4.5089,19.0073-7.3891
			c3.4878-1.6369,6.8939-3.6065,6.2759-7.8806C94.8954,59.6263,92.0051,60.4409,92.2786,62.3324L92.2786,62.3324z"/>
	</g>
</g>
</svg>
