<?xml version="1.0" encoding="utf-8"?>
<!-- Generator: Adobe Illustrator 18.0.0, SVG Export Plug-In . SVG Version: 6.00 Build 0)  -->
<!DOCTYPE svg PUBLIC "-//W3C//DTD SVG 1.1//EN" "http://www.w3.org/Graphics/SVG/1.1/DTD/svg11.dtd">
<svg version="1.1" id="Livello_1" xmlns="http://www.w3.org/2000/svg" xmlns:xlink="http://www.w3.org/1999/xlink" x="0px" y="0px"
	 viewBox="0 0 49.5158 39.7696" enable-background="new 0 0 49.5158 39.7696" xml:space="preserve">
<path fill="#FFFFFF" d="M28.3458,16.1399c3.4498-1.6142,6.8536-3.1366,10.193-4.7891c3.3425-1.654,6.6207-3.4378,9.8565-5.1279
	c1.4035,1.5979,1.4635,2.0709,0.3201,3.4174c-1.3123,1.5454-2.5583,3.2059-4.1136,4.4717
	c-2.0557,1.6731-4.3759,3.0236-6.5976,4.4897c-1.5903,1.0494-3.2055,2.0609-5.086,3.2665c3.1553-0.5058,5.9739-1.0252,8.8125-1.3886
	c1.8346-0.2349,3.6982-0.2467,5.5497-0.3416c0.1746-0.0089,0.4907,0.0723,0.5122,0.1649c0.1977,0.849,0.5821,1.7557,0.428,2.5518
	c-0.1139,0.5886-0.8894,1.1228-1.4753,1.5301c-1.0543,0.7329-2.1906,1.347-3.2869,2.0202
	c-2.2482,1.3804-4.5887,2.5208-7.1395,3.2795c-2.1016,0.6251-4.1225,1.5221-6.1775,2.3029
	c-0.6185,0.235-1.4467,0.3152-1.7998,0.7643c-0.6257,0.7959-0.9396,1.8314-1.4224,2.7463
	c-1.5361,2.9108-4.1329,4.8006-7.3666,4.1395c-2.7853-0.5694-5.3306-1.8621-7.5438-3.664c-2.6034-2.1196-4.9734-4.4822-6.6679-7.427
	c-1.1713-2.0356-2.4634-4.0239-3.4022-6.1646c-0.8655-1.9738-1.3908-4.1076-1.9245-6.2069c-0.108-0.4247,0.4176-1.0105,0.773-1.7891
	c1.819,1.7756,3.4932,3.4098,5.1716,5.0482c0.9345-2.1249,0.9534-4.1537,0.2461-6.3995c-0.7293-2.316-0.9517-4.803-1.2674-7.2319
	c-0.1122-0.8632,0.153-1.7754,0.267-2.8661c2.9746,1.1863,4.3272,3.9588,6.9321,5.3522c1.4484-1.9288,3.0516-3.8021,5.8972-4.495
	c-0.6567-0.5857-1.0462-0.9327-1.4352-1.2802c-0.5115-0.4569-1.1229-0.7949-0.6517-1.7182c0.4533-0.8884,0.9987-0.9259,1.8079-0.628
	c1.7056,0.6279,3.4186,1.2392,5.1485,1.7955c0.7151,0.23,1.4754,0.3579,2.2251,0.4352c3.4351,0.3539,6.8693,1.0565,10.3254,0.2251
	c0.9643-0.232,1.1967,0.3518,1.4115,1.0553c0.2154,0.7056,0.0669,1.177-0.6853,1.4716c-2.6203,1.0263-4.7425,2.8453-6.971,4.4882
	c-0.1846,0.1361-0.2916,0.464-0.3176,0.715C28.7008,12.194,28.5399,14.0378,28.3458,16.1399z M45.6335,22.6835
	c-0.0487-0.1643-0.0974-0.3285-0.146-0.4928c-2.1431,0.2509-4.2953,0.4434-6.4263,0.7728
	c-1.4884,0.2301-2.9361,0.7178-4.4227,0.9657c-2.451,0.4087-3.2938,0.7844-4.9332,2.4808c-0.053,0.0548-0.1462,0.0763-0.1871,0.1363
	c-0.2106,0.3088-0.5522,0.6107-0.5858,0.9417c-0.0844,0.8319-0.0279,1.6781-0.0279,2.6512
	C34.9816,28.5404,40.6629,26.3968,45.6335,22.6835z M28.9973,22.0005c5.8585-3.9096,12.3451-6.7211,17.0551-12.0258
	c-0.0681-0.1103-0.1361-0.2206-0.2042-0.3309c-6.0988,3.0826-12.1976,6.1653-18.3887,9.2945
	C28.0371,20.0885,28.47,20.9505,28.9973,22.0005z M18.2998,17.4038c-1.6543-1.6264-3.2035-3.1702-4.7898-4.6749
	c-0.148-0.1404-0.5686-0.124-0.7978-0.0271c-1.3802,0.5835-1.5034,1.7947-1.7361,3.1141c-0.4332,2.4565,0.687,4.4622,1.3617,6.5908
	C14.309,20.7526,16.211,19.1566,18.2998,17.4038z M23.0171,13.7168c-0.0383-0.6194,0.0419-0.983-0.0923-1.2301
	c-1.146-2.1096-2.3051-4.2135-3.5341-6.2752c-0.1705-0.2861-0.8255-0.5591-1.1161-0.4533
	c-1.9167,0.6977-3.2508,2.1753-4.5525,3.6637c-0.1112,0.1271-0.1105,0.468-0.0173,0.6224c0.0796,0.1318,0.3637,0.1767,0.563,0.1936
	c0.9188,0.0782,1.8678,0.0136,2.7538,0.2219c1.7454,0.4104,3.4269,1.014,4.7234,2.3701
	C22.0223,13.12,22.4126,13.3023,23.0171,13.7168z M17.9711,33.9414c-1.0768-1.5086-1.4334-1.5529-3.3197-0.8847
	c-0.4928,0.1746-1.3219,0.1148-1.6643-0.1994c-0.3541-0.3249-0.4932-1.1347-0.3721-1.649c0.0992-0.4212,0.7188-0.7198,1.0664-1.0353
	c-0.5953-0.6388-1.1948-1.3285-1.8448-1.9669c-0.6609-0.6491-1.2868-0.8236-2.0202,0.0404c-0.4159,0.49-1.1131,0.7412-1.7317,1.1302
	c2.0132,3.2234,4.9812,5.3,8.2651,7.3179C16.4851,34.2024,16.5181,34.1525,17.9711,33.9414z M18.7406,31.0346
	c0.8079,0.7085,1.2923,1.2207,1.8658,1.597c0.2634,0.1728,0.7382,0.1908,1.0543,0.0872c1.4376-0.4712,2.8514-1.0145,4.2767-1.5236
	c0.6261-0.2236,1.0743-0.5337,1.0865-1.31c0.0169-1.0729,0.1295-2.1443,0.2137-3.4041
	C24.3677,28.0191,21.6521,29.4744,18.7406,31.0346z M24.472,11.678c0.4675-0.4032,0.7999-0.6705,1.1106-0.961
	c1.5663-1.4641,1.5823-1.6627,0.2737-3.4186c-0.7939-1.0652-3.5085-2.575-4.9306-1.6934C22.0844,7.5892,23.2445,9.576,24.472,11.678
	z M7.946,13.5973c0.9237-0.8307,1.7839-1.463,2.4435-2.2611c0.2996-0.3625,0.4693-1.3202,0.2395-1.5505
	C9.4488,8.6031,8.1195,7.5693,6.8423,6.4835C6.7188,6.5728,6.5954,6.6622,6.472,6.7516C6.9636,9.0348,7.4552,11.3179,7.946,13.5973z
	 M2.593,18.9061c0.0814,0.5053,0.0686,0.7903,0.1739,1.0215c0.8952,1.9649,1.7671,3.9425,2.7371,5.8705
	c0.7137,1.4184,0.8463,1.3956,1.8905,0.2098c0.0764-0.0868,0.1432-0.1821,0.0571-0.0718
	C6.5605,23.1089,5.3155,20.6381,2.593,18.9061z M25.5524,24.0916c-0.8287-1.0795-1.6922-1.1995-2.3475-0.5986
	c-0.8724,0.8-1.7353,1.6651-2.7501,2.2426c-1.5781,0.898-3.2806,1.5774-5.0013,2.3826c0.196,0.254,0.5112,0.6627,0.805,1.0436
	C19.4006,27.4476,22.4272,25.7965,25.5524,24.0916z M26.0322,4.6925c0.7822,1.1027,1.5457,2.1791,2.3657,3.3351
	c1.1357-0.914,2.2831-1.8375,3.5245-2.8367C29.8573,5.0162,27.9709,4.8566,26.0322,4.6925z M16.0905,11.9341
	c-0.1544,0.2063-0.3088,0.4126-0.4632,0.6189c1.3241,1.2207,2.6481,2.4414,4.088,3.7689c0.5566-0.5968,1.0248-1.0988,1.7346-1.8598
	C19.5123,13.5481,17.8014,12.7411,16.0905,11.9341z M14.7033,22.9642c0.0601,0.0911,0.1202,0.1821,0.1803,0.2732
	c0.9836-0.4825,1.978-0.9442,2.9476-1.4531c0.9988-0.5242,1.9735-1.0942,2.9716-1.6514c-1.0926-1.3391-1.2849-1.3538-2.4956-0.2561
	c-0.4182,0.3792-0.8207,0.7766-1.251,1.1415C16.2801,21.6765,15.4885,22.3165,14.7033,22.9642z M20.9325,17.4029
	c0.6871,0.6343,1.0967,1.1892,1.6461,1.4527c0.3245,0.1556,0.9242-0.0546,1.3041-0.2698c0.6083-0.3446,0.5114-0.8201,0.0328-1.2811
	c-0.4101-0.395-0.7763-0.8354-1.3376-1.4471C22.01,16.3909,21.5169,16.854,20.9325,17.4029z M25.7808,33.9797
	c-0.112-0.1363-0.224-0.2727-0.336-0.409c-0.853,0.3838-1.825,0.6304-2.5018,1.2173c-0.28,0.2428,0.0726,1.215,0.1375,1.8554
	c0.1196,0.057,0.2391,0.114,0.3587,0.171C24.2198,35.8694,25.0003,34.9246,25.7808,33.9797z M8.3171,19.3797
	c-0.9273,1.6313-0.1689,2.8234,2.1365,4.4621C9.7528,22.3781,9.052,20.9145,8.3171,19.3797z M15.7927,25.2898
	c0.3603,0.2288,0.6633,0.5223,0.7576,0.466c1.5986-0.9534,3.1714-1.9503,4.7498-2.9375c-0.0695-0.1064-0.139-0.2129-0.2085-0.3193
	C19.3821,23.3994,17.6724,24.2998,15.7927,25.2898z M18.3249,37.1367c-0.0101,0.1197-0.0203,0.2394-0.0304,0.3591
	c1.1384,0,2.2769,0,3.6261,0C20.6394,35.9046,20.3914,35.8975,18.3249,37.1367z M26.1503,15.3376
	c0.0945,0.0181,0.1891,0.0362,0.2836,0.0542c0.2444-1.1281,0.4889-2.2561,0.7333-3.3842c-0.1262-0.0471-0.2524-0.0942-0.3785-0.1413
	c-0.4694,0.5652-0.9388,1.1304-1.4467,1.742C25.6007,14.1619,25.8755,14.7497,26.1503,15.3376z"/>
</svg>
