<?xml version="1.0" encoding="utf-8"?>
<!-- Generator: Adobe Illustrator 18.0.0, SVG Export Plug-In . SVG Version: 6.00 Build 0)  -->
<!DOCTYPE svg PUBLIC "-//W3C//DTD SVG 1.1//EN" "http://www.w3.org/Graphics/SVG/1.1/DTD/svg11.dtd">
<svg version="1.1" id="Livello_1" xmlns="http://www.w3.org/2000/svg" xmlns:xlink="http://www.w3.org/1999/xlink" x="0px" y="0px"
	 viewBox="0 0 47.3875 108.4997" enable-background="new 0 0 47.3875 108.4997" xml:space="preserve">
<g>
	<path fill="#FFFFFF" d="M5.6607,99.7794c0.4578-0.446,0.7754-0.7187,1.0505-1.029c2.3169-2.6138,3.3359-5.9004,4.7022-9.0147
		c0.9841-2.243,2.109-4.4244,3.1779-6.63c1.3353-2.7554,2.704-5.495,4.0098-8.2643c1.4128-2.9962,2.7541-6.0261,4.1553-9.0279
		c1.5659-3.3545,3.1375-6.707,4.7591-10.0348c0.8793-1.8046,1.9065-3.537,2.7933-5.3382c0.5739-1.1657,1.0148-2.3968,1.515-3.5988
		c0.4297-1.0328,0.9106-2.0478,1.2769-3.1026c0.6645-1.9132,1.2579-3.8511,1.888-5.7764c0.112-0.3423,0.2449-0.6793,0.3918-1.0083
		c0.209-0.4679,0.4528-0.9204,0.6589-1.3895c0.6267-1.4261,1.2156-2.8695,1.8706-4.2824c0.5558-1.199,1.2069-2.3536,1.7733-3.548
		c1.0223-2.1559,2.0227-4.3223,3.0087-6.495c0.2171-0.4785,0.3763-0.9925,0.4896-1.5062c0.1145-0.5192-0.1164-0.9429-0.458-1.3594
		c-1.5164-1.8489-4.0616-3.3831-6.661-2.1105c-0.5485,0.2685-1.9121-0.1152-2.2366-0.6306
		c-0.1041-0.1654-0.0672-0.5671,0.0663-0.7102c0.7908-0.8471,1.6406-1.6388,2.4432-2.4754c0.1969-0.2052,0.4-0.5027,0.4136-0.7674
		c0.0456-0.8873,0.5365-1.7036,1.379-2.0179c0.7914-0.2953,1.0021-0.9782,1.1516-1.6745c0.3385-1.5776,0.898-3.0446,1.8491-4.3662
		c0.549-0.7628,0.9885-1.6035,1.5121-2.3858c0.6211-0.9279,1.531-1.3924,2.2219-1.1878c1.2062,0.3571,1.9172,1.4839,2.2234,2.5295
		c0.3065,1.0466,0.3013,2.0418,0.3013,3.0835c0,1.4783-0.5312,2.7924-1.1662,4.0722c-0.4599,0.9269-0.933,1.8473-1.7456,2.5612
		c-0.2327,0.2045-0.2986,0.7175-0.2717,1.0764c0.0792,1.0578,0.297,2.1063,0.3554,3.1642c0.0402,0.7292-0.1946,0.8422-0.8723,0.6817
		c0.587,1.1316,1.5964,2.1747,1.0426,3.6837c-0.0952,0.2595-0.183,0.533-0.3356,0.7584c-0.6552,0.9673-1.1007,2.0271-1.3829,3.1508
		c-0.0462,0.1839,0.1304,0.6038,0.2503,0.6228c2.2889,0.3633,2.5829,1.772,2.6158,3.6423c0.0375,2.1324-0.6987,4.1823-2.017,5.8827
		c-1.7731,2.2871-3.7968,4.3836-5.5147,6.7083c-1.0845,1.4675-1.8003,3.2062-2.6948,4.8158
		c-0.514,0.9248-1.1396,1.7972-1.5647,2.7595c-0.7737,1.7516-1.677,3.4946-1.4213,5.5134c0.0307,0.2423,0.2454,0.4594,0.366,0.6929
		c0.0658,0.1274,0.1409,0.2598,0.1635,0.3978c0.1052,0.6435-0.4283,1.4324-1.0236,1.5354
		c-0.6806,0.1177-1.5252-0.3481-1.5593-1.0223c-0.0715-1.4146-0.381-2.828,0.5088-4.2026c0.7507-1.1598,1.1638-2.5333,1.7918-3.7791
		c0.3717-0.7374,0.9042-1.392,1.3048-2.1169c0.6852-1.2399,1.3158-2.5098,1.9833-3.7596c1.5371-2.8781,3.6138-5.324,5.8586-7.6826
		c1.5972-1.6782,2.5785-3.7717,2.3823-6.2257c-0.0636-0.7948-0.569-1.2922-1.365-1.1906c-0.7315,0.0933-1.4683,0.3316-1.835,1.0535
		c-0.7606,1.4974-1.4045,3.058-2.2293,4.5175c-0.5561,0.984-0.5646,2.0887-0.9582,3.078c-0.3799,0.9549-1.0303,1.8003-1.5422,2.7049
		c-0.5438,0.961-1.1208,1.9092-1.5793,2.9107c-0.4559,0.9958-0.7548,2.0622-1.1724,3.0771
		c-0.6897,1.6765-1.3934,3.3482-2.1408,4.9995c-0.5598,1.2367-1.1975,2.438-1.8006,3.6551
		c-1.0196,2.0576-2.0568,4.1066-3.0539,6.175c-1.0784,2.2368-2.1188,4.4919-3.1767,6.7386c-0.8622,1.831-1.741,3.6544-2.5847,5.4939
		c-1.0683,2.3292-2.0677,4.6909-3.1738,7.0018c-0.8969,1.8738-1.9596,3.6684-2.8492,5.5453
		c-0.5728,1.2086-0.9502,2.5087-1.444,3.7564c-0.3476,0.8784-0.7665,1.7289-1.1086,2.6092
		c-0.1824,0.4692-0.2748,0.9741-0.3968,1.4656c-0.0488,0.1963-0.0073,0.4408-0.1103,0.5937
		c-0.8624,1.2804-0.6835,2.9135-1.3776,4.2031c-0.5638,1.0477-1.4628,1.9282-2.2786,2.8232
		c-0.725,0.7954-1.5578,1.4918-2.3004,2.2725c-0.1541,0.162-0.1886,0.5094-0.1629,0.7595c0.2601,2.5357-0.8739,4.2875-3.035,5.4705
		c-0.6288,0.3442-2.1064,0.2162-2.5946-0.2648c-0.1412-0.1391-0.2094-0.4788-0.1488-0.6769
		c0.6994-2.2865,1.3296-4.617,3.2711-6.2538c0.1662-0.1401,0.3529-0.2637,0.5469-0.3616c0.367-0.1852,0.4146-0.4723,0.1671-0.736
		c-0.5789-0.6168-0.4454-1.3161-0.2954-2.0166c0.2675-1.2497,0.3948-2.4671,0.1191-3.7663
		c-0.2498-1.177-0.1862-2.4235-0.2239-3.6405c-0.0091-0.2941,0.0958-0.6045,0.2023-0.8871c0.3811-1.0114,0.7536-2.028,1.1883-3.0168
		c0.6686-1.521,1.3657-3.0304,2.087-4.5273c1.3855-2.8757,2.773-5.7509,4.2065-8.6027c0.719-1.4304,1.6094-2.7762,2.3006-4.2186
		c1.0328-2.1554,1.9922-4.3479,2.9208-6.5507c1.293-3.0672,2.5322-6.157,3.7876-9.2399c0.7478-1.8363,1.4938-3.6735,2.2197-5.5185
		c0.6504-1.653,1.3136-3.303,1.895-4.9807c0.5903-1.7033,1.1195-3.4297,1.6192-5.1622c1.2164-4.2177,2.3628-8.4535,4.0912-12.5079
		c0.5524-1.2957,0.8373-2.7035,1.2825-4.0475c0.198-0.5977,0.4527-1.185,0.7586-1.7342c0.1117-0.2005,0.4434-0.3698,0.6798-0.3767
		c0.1513-0.0044,0.3716,0.2893,0.4583,0.493c0.3819,0.8969,0.0204,2.152-0.9321,2.8324c-0.2298,0.1641-0.3908,0.4829-0.4893,0.7636
		c-1.3664,3.8938-2.7264,7.79-4.0664,11.6929c-0.7754,2.2585-1.5226,4.5268-2.263,6.797c-0.5164,1.5835-0.9809,3.1841-1.5113,4.7627
		c-0.1309,0.3896-0.5206,0.697-0.6319,1.0876c-0.3257,1.1425-0.8701,2.1825-1.3372,3.2632
		c-1.1587,2.6811-2.2879,5.3804-3.2825,8.1254c-1.015,2.801-2.5906,5.3496-3.5888,8.1352
		c-0.6871,1.9174-1.8078,3.5868-2.5888,5.4343c-0.4486,1.0611-0.6674,2.1855-1.2505,3.2294
		c-1.1402,2.0413-2.0892,4.1941-3.0393,6.3354c-1.0478,2.3617-2.0353,4.7514-2.9867,7.1537
		c-0.2378,0.6003-0.2377,1.2304-0.0051,1.9509c0.3013,0.9336,0.2629,1.9999,0.2468,3.0071c-0.0207,1.2965-0.1953,2.59-0.2379,3.887
		C5.3259,98.6108,5.5099,99.0593,5.6607,99.7794z M40.3522,11.1703c-0.0747,0.6451,0.2006,0.9481,0.8721,0.8713
		c1.1412-0.1305,2.2518-0.4971,2.9671-1.405c1.576-2.0003,2.2072-4.3082,1.7744-6.8461c-0.0831-0.4876-0.315-0.9675-0.5594-1.4056
		c-0.3524-0.6318-1.5779-0.4121-2.1415,0.3508C41.4155,5.2391,40.4267,8.0438,40.3522,11.1703z M43.387,16.8197
		c-0.3304-1.0466-0.6608-2.0932-1.007-3.19c-0.2246,0.0265-0.4468,0.0917-0.6607,0.0709c-0.8262-0.0801-1.6955-0.0537-2.4634-0.3164
		c-1.163-0.3978-1.2077-0.4668-2.0595,0.6837C39.6202,14.2303,41.7731,14.8731,43.387,16.8197z"/>
</g>
</svg>
