<?xml version="1.0" encoding="utf-8"?>
<!-- Generator: Adobe Illustrator 18.0.0, SVG Export Plug-In . SVG Version: 6.00 Build 0)  -->
<!DOCTYPE svg PUBLIC "-//W3C//DTD SVG 1.1//EN" "http://www.w3.org/Graphics/SVG/1.1/DTD/svg11.dtd">
<svg version="1.1" id="Livello_1" xmlns="http://www.w3.org/2000/svg" xmlns:xlink="http://www.w3.org/1999/xlink" x="0px" y="0px"
	 viewBox="0 0 38.0584 37.4833" enable-background="new 0 0 38.0584 37.4833" xml:space="preserve">
<g>
	<path fill="#FFFFFF" d="M6.0266,30.8507c-0.2048-0.8442-0.3118-1.4084-0.4797-1.9539c-0.4789-1.5557-0.9786-3.105-1.4777-4.6544
		c-0.4355-1.3517-0.9517-2.6818-1.3075-4.0538c-0.6886-2.6555-1.0825-5.3587-0.8695-8.1135
		c0.0826-1.0683,0.2177-2.1359,0.3961-3.1924C2.4462,7.9482,3.4474,7.08,4.5248,7.1387C5.8325,7.21,7.1276,7.5141,8.4274,7.7226
		c0.2512,0.0403,0.4987,0.1037,0.9334,0.1957C9.089,7.3395,8.7577,6.9527,8.7665,6.5737c0.0116-0.5005,0.2508-1.015,0.4888-1.4734
		c0.044-0.0848,0.6112-0.0219,0.8228,0.1309c0.4088,0.2951,0.718,0.7237,1.1006,1.0605c2.0058,1.7659,4.3103,2.7436,6.933,1.8342
		c1.1051-0.3832,1.984-1.4205,2.9629-2.1643c0.17-0.1292,0.3116-0.2996,0.4904-0.4129c1.8565-1.1765,3.7211-2.3403,5.5769-3.518
		C28.1753,1.375,29.1962,0.6996,30.2735,0c0.294,0.919,0.5476,1.7117,0.7824,2.4457c-1.1498,1.2578-2.3081,2.5248-3.622,3.962
		c0.3711,0,0.5745,0.0566,0.7249-0.0089c1.3303-0.5785,2.6716-1.138,3.9669-1.7883c0.7381-0.3706,1.3511-1.0111,2.1063-1.3201
		c0.5362-0.2194,1.3632-0.3253,1.7964-0.0564c0.6154,0.382,0.591,1.1716,0.4482,1.9627c-0.1271,0.7041-0.2437,1.3872,0.2795,2.2513
		c0.7445,1.2294,0.8529,2.849,1.2025,4.3092c0.0916,0.3826,0.09,0.7919,0.0978,1.1896c0.0389,1.9726-0.5034,3.8284-1.0467,5.7048
		c-0.668,2.3072-2.0366,4.2388-3.1647,6.2917c-0.7971,1.4505-1.8893,2.7398-2.8611,4.093
		c-0.9075,1.2636-1.7115,2.6298-2.7777,3.7435c-1.1462,1.1973-2.4554,2.2966-3.8609,3.169c-1.1198,0.695-2.4632,1.1021-3.761,1.4122
		c-0.8397,0.2007-1.8079,0.1356-2.662-0.0587c-1.3175-0.2996-2.6025-0.7696-3.8717-1.2461c-1.2636-0.4744-2.4907-1.046-3.747-1.5806
		c-0.7334,0.8652-1.642,0.9136-2.1831-0.1713c-0.6889-1.3813-1.999-1.6715-3.1538-2.2273
		c-1.3887-0.6685-2.8644-1.1544-4.2752-1.7807c-0.3065-0.1361-0.707-0.5454-0.6909-0.8059c0.0223-0.3627,0.3428-0.933,0.6323-1.0006
		c0.4426-0.1034,1.2138-0.0211,1.4157,0.2753C2.9888,30.1449,4.5772,30.0076,6.0266,30.8507z M3.3777,18.8987
		c0.2881,0.6088,0.4885,1.0289,0.6859,1.4505c0.2284,0.4878,0.3425,1.0926,0.7041,1.4413c0.7687,0.7412,1.6383,1.3883,2.5157,2.004
		c1.8092,1.2696,3.6269,2.5313,5.4995,3.703c0.3624,0.2267,1.0437,0.1669,1.4868-0.001c1.2481-0.473,2.4507-1.0668,3.6669-1.6223
		c0.394-0.18,0.7747-0.389,1.1819-0.5951c-0.6774-0.9604-0.5681-1.4676,0.2429-2.137c1.776-1.4657,3.5974-2.8858,5.2767-4.4566
		c1.7962-1.6802,3.5407-3.435,5.1386-5.3021c1.3148-1.5363,2.382-3.2844,3.559-4.9386c-0.0705-0.0948-0.141-0.1896-0.2115-0.2845
		c-1.2205,0.1038-2.4447,0.1768-3.6599,0.3241c-0.6208,0.0753-1.3609,0.5752-1.8074,0.3676
		c-0.7743-0.36-1.0375,0.0707-1.4539,0.4423c-0.8326,0.743-1.1407,1.9432-2.2434,2.4688c-0.5856,0.2791-1.133,0.6799-1.622,1.1115
		c-1.1096,0.9793-2.129,2.0644-3.2698,3.0035c-0.7453,0.6136-1.6033,1.1282-2.486,1.5164c-0.3065,0.1348-0.9158-0.1526-1.237-0.4242
		c-0.1747-0.1478-0.1832-0.8018-0.0091-0.9935c0.4954-0.5452,1.1526-0.9389,1.6933-1.4484
		c1.7934-1.6901,3.5636-3.4049,5.3178-5.0863c-1.5755,0.3133-3.2472,0.5332-4.6104,1.6768
		c-0.0055-0.0216,0.1005,0.1932,0.0521,0.2367c-0.9758,0.8789-1.9278,1.7942-2.9801,2.5732
		c-0.411,0.3043-1.151,0.3765-1.4249-0.2755c-0.15-0.357-0.0377-0.896,0.1186-1.2883c0.1399-0.3513,0.5079-0.6092,0.7643-0.9175
		c0.1784-0.2145,0.3382-0.4445,0.594-0.7839c-2.4579-0.1267-4.7503-0.1094-6.9035-0.956C6.8058,9.2552,5.6375,9.0742,4.4241,9.277
		C4.2101,9.3127,3.974,9.5151,3.8435,9.7059c-1.302,1.9029-0.7438,4.0191-0.6456,6.074c0.0456,0.9552,0.2175,1.9038,0.2996,2.8582
		C3.5104,18.7883,3.3499,18.9534,3.3777,18.8987z M34.2173,17.7277c-5.433,4.544-11.8693,7.5177-17.9949,11.1888
		c0.7819,0.4252,1.4539,0.6982,2.0183,1.1164c1.2292,0.9108,2.4235,1.8724,3.5839,2.8693c0.2368,0.2034,0.27,0.6503,0.3827,0.9897
		c0.1059,0.3189,0.1928,0.6442,0.3736,1.2565c1.63-1.0643,3.29-1.7281,4.3528-2.923c2.8957-3.2557,5.4223-6.8051,7.3609-10.7522
		c1.1681-2.3785,2.2811-4.7174,2.2135-7.4669c-0.0464-1.8863-0.0104-3.7522-1.3553-5.4304c-0.342,0.5553-0.599,1.1071-0.9766,1.5579
		c-0.7943,0.9481-1.6833,1.8169-2.4753,2.7667c-0.9702,1.1634-1.8809,2.3764-2.9448,3.7302
		c0.4285-0.0203,0.6157,0.0069,0.7795-0.0428c1.0265-0.3116,2.0631-0.5999,3.0651-0.9787c0.586-0.2215,0.9053-0.0176,1.1013,0.4695
		C33.8982,16.5668,34.0204,17.0849,34.2173,17.7277z M21.1785,35.5133c0.0135-0.1178,0.0271-0.2356,0.0406-0.3535
		c-0.2643-0.1398-0.5362-0.2671-0.7917-0.4215c-1.293-0.7813-2.621-1.5129-3.8601-2.3724
		c-1.0917-0.7574-2.0328-1.7196-3.4452-1.9326c-0.4088-0.0617-0.8611-0.3489-1.138-0.6677
		c-0.6589-0.7589-0.962-1.8134-2.0168-2.2477c-0.3842-0.1582-0.6813-0.5185-1.0347-0.7627
		c-0.6333-0.4375-1.2791-0.8568-1.9197-1.2837c-0.0796,0.068-0.1593,0.136-0.2389,0.204c0.7677,1.7748,1.5564,3.5409,2.2955,5.3276
		c0.4881,1.18,1.2606,2.0264,2.4876,2.4299c0.2646,0.087,0.5377,0.157,0.7892,0.2733c2.236,1.0341,4.5801,1.6469,7.0386,1.8015
		C19.9805,35.5452,20.5805,35.5133,21.1785,35.5133z M30.8149,18.4296c-2.3505,0.3579-6.3653,2.9546-7.5127,4.6373
		C25.8064,21.5211,28.3106,19.9753,30.8149,18.4296z M26.2349,5.015c-1.6028,0.1897-2.3846,1.2262-3.3263,2.1585
		C24.5466,7.2957,25.3023,6.2074,26.2349,5.015z M35.0018,4.6467c-0.5663,0.4276-1.0831,0.8177-1.6695,1.2605
		C34.6415,5.9911,34.7246,5.924,35.0018,4.6467z"/>
</g>
</svg>
