<?xml version="1.0" encoding="utf-8"?>
<!-- Generator: Adobe Illustrator 18.0.0, SVG Export Plug-In . SVG Version: 6.00 Build 0)  -->
<!DOCTYPE svg PUBLIC "-//W3C//DTD SVG 1.1//EN" "http://www.w3.org/Graphics/SVG/1.1/DTD/svg11.dtd">
<svg version="1.1" id="Livello_1" xmlns="http://www.w3.org/2000/svg" xmlns:xlink="http://www.w3.org/1999/xlink" x="0px" y="0px"
	 viewBox="0 0 53.2858 46.3765" enable-background="new 0 0 53.2858 46.3765" xml:space="preserve">
<path fill="#FFFFFF" d="M14.1355,1.1546c2.0741-1.0352,4.2813-1.1731,6.5367-1.1528c1.3815,0.0124,1.9387,0.8453,2.0694,2.0234
	c0.0899,0.8103,0.4296,0.9515,1.1806,0.9566c4.876,0.0334,9.7578,0.0016,14.6247,0.2472c2.5855,0.1305,5.2146,0.5418,7.6884,1.2806
	c1.3413,0.4006,2.5202,1.6356,3.5568,2.7035c1.9624,2.0217,3.0341,4.503,3.1765,7.3559c0.0828,1.6584,0.4522,3.3423,0.265,4.9654
	c-0.3144,2.7257-0.564,5.5109-2.3212,7.8687c-0.9231,1.2386-1.4137,2.8289-2.4327,3.9604c-2.181,2.4215-4.7233,4.3395-8.2843,4.1034
	c-0.3399-0.0225-0.7778,0.0775-1.0275,0.289c-0.9804,0.8305-1.9778,1.6621-2.8318,2.616c-1.4705,1.6425-3.1497,2.9129-5.2044,3.7594
	c-1.7333,0.7142-3.3993,1.6003-5.0648,2.4684c-2.3083,1.2032-4.8276,1.4245-7.3422,1.6004
	c-1.8096,0.1266-3.6692,0.3049-5.4426,0.037c-5.1749-0.7817-9.0035-2.7317-10.8987-9.0538
	c-0.0921-0.3072-0.0867-0.6476-0.1006-0.9736c-0.0582-1.3638-0.2989-2.5395-1.0913-3.8269
	c-0.8517-1.3837-0.9329-3.3181-1.0937-5.0362c-0.4622-4.9365,0.7762-9.5654,2.4425-14.1925
	c1.1571-3.2133,2.8165-6.0025,4.9808-8.556c0.3473-0.4098,0.8511-0.7167,1.3337-0.9761 M32.7147,5.1424
	c1.0154,1.5211,2.1394,2.7684,2.7306,4.2311c0.4589,1.1355,0.2282,2.5423,0.3551,3.8234c0.0457,0.4617,0.0976,1.0621,0.3917,1.3357
	c1.2655,1.1771,1.8289,2.7222,1.7023,4.2818c-0.1213,1.4942-0.647,3.0595-1.3943,4.3649c-0.5591,0.9765-0.4408,1.4314,0.2943,2.0287
	c0.5071,0.412,0.9768,0.8708,1.493,1.2701c0.1701,0.1316,0.4334,0.1999,0.6542,0.2001c2.9362,0.0028,3.4363,1.1394,2.9292,3.6125
	c-0.1814,0.885-0.5477,1.732-0.8587,2.6853c3.209-0.1619,5.038-2.314,6.6767-4.4578c1.174-1.5359,2.0137-3.4081,2.6493-5.252
	c0.6261-1.8165,1.0226-3.7759,1.1148-5.6921c0.0719-1.493-0.3597-3.0494-0.7769-4.5181c-0.7374-2.5955-1.8921-5.0205-4.5206-6.1926
	c-1.3831-0.6167-2.919-1.0507-4.4227-1.203C38.7047,5.354,35.6515,5.2968,32.7147,5.1424z M33.7103,12.4658
	c0-0.615,0.1362-1.3623-0.0238-2.0396c-0.6553-2.773-2.7834-3.6805-5.3177-4.0711c-2.6103-0.4023-5.2049-0.5337-7.6741,0.5748
	c-2.5369,1.1389-5.0442,2.349-7.5236,3.6084c-1.0366,0.5265-1.188,1.4809-1.086,2.6452c0.221,2.5226,0.2164,5.0642,0.3586,7.595
	c0.0546,0.9703,0.2582,1.9322,0.4158,3.0534c0.6146-0.5372,1.053-0.894,1.4615-1.2821c1.3625-1.2945,2.6036-2.7486,4.0983-3.864
	c1.8732-1.3978,3.9171-2.5812,5.9535-3.7407c1.26-0.7175,2.5939-1.4122,3.9839-1.7669
	C30.0167,12.7546,31.7721,12.705,33.7103,12.4658z M16.4683,31.8941c0.6398-0.1893,1.4256-0.2082,1.8883-0.6044
	c0.8925-0.7644,1.5094-1.8527,2.408-2.6071c1.6924-1.4209,3.3915-2.8685,5.5536-3.5929c0.4111-0.1377,0.8062-0.4113,1.1299-0.708
	c2.4393-2.2358,4.2251-4.894,5.3608-8.0258c0.7644-2.1081,0.18-1.9788-1.5105-1.8939c-3.2368,0.1627-5.9778,1.859-8.6997,3.3491
	c-1.8469,1.0111-3.4169,2.576-4.9911,4.0234c-1.57,1.4437-2.9776,3.056-3.9439,5.0016
	C12.3608,29.4596,13.5741,31.6272,16.4683,31.8941z M9.9112,30.4044c1.1244-1.9018,1.1139-3.7657,0.9799-5.6674
	c-0.1056-1.5001-0.088-3.0086-0.1445-4.5126c-0.0909-2.4176-0.1649-4.8369-0.3285-7.2498c-0.0291-0.43-0.5449-0.8064-0.6805-1.2547
	c-0.1856-0.6133-0.5409-1.5524-0.2678-1.8622C10.6606,8.5068,10.0838,7.046,10.2182,5.3c-2.7174,2.1999-4.3321,4.7499-5.4715,7.6412
	c-1.1618,2.9482-1.6313,6.0544-2.2635,9.1398c-0.4721,2.3041-0.2428,4.4971-0.0374,6.7388
	c0.0653,0.7128,0.3151,1.4086,0.5458,2.3902C5.3043,28.7759,7.5544,28.6106,9.9112,30.4044z M4.6069,34.8338
	c0.1282,1.0512,0.0274,1.958,0.3669,2.6483c0.7141,1.4523,1.3969,3.0902,2.5642,4.1141c2.4104,2.1144,5.5361,2.7177,8.6533,2.6303
	c2.5641-0.0719,5.1563-0.4441,7.657-1.0241c1.7363-0.4027,3.3614-1.3362,4.9907-2.1265c0.8147-0.3952,1.5159-1.0188,2.2896-1.5055
	c0.6275-0.3948,1.2866-0.7395,1.9317-1.1064c-3.813,0.7512-8.7387,1.6676-12.4926,1.1563
	c-3.7714-0.5136-7.5739-1.1515-8.5511-5.8365c-0.058-0.278-0.0911-0.5778-0.2239-0.8189c-0.1234-0.2241-0.3648-0.3832-0.3682-0.3866
	c-0.6145,0.7303-1.0138,1.6747-1.6217,1.8367C8.1827,34.8468,6.5687,35.8714,4.6069,34.8338z M36.7006,33.9421
	c-0.4183-0.6344-0.8031-1.1614-1.1284-1.7228c-0.7445-1.2847-0.5513-2.4048,0.4134-3.6591
	c0.2052-0.2668,0.1677-1.0882-0.0425-1.2289c-0.4215-0.2821-1.2304-0.544-1.5398-0.3279c-0.8453,0.5904-1.4547,1.5074-2.2664,2.1596
	c-1.3914,1.1179-2.7745,2.2991-4.3276,3.1496c-2.0191,1.1056-4.1729,1.7429-6.614,1.586c-2.0764-0.1334-4.1923,0.346-6.2691,0.5522
	c0,0.2504-0.0265,0.3436,0.0059,0.4062c0.0548,0.1055,0.1344,0.2063,0.2252,0.2836c1.9606,1.6695,4.3842,1.9986,6.7925,2.1195
	c1.8073,0.0907,3.6383-0.1661,5.4514-0.343C30.6817,36.597,33.8154,35.7865,36.7006,33.9421z M13.8422,3.8818
	c0.2955,1.1895,0.5137,2.0681,0.7687,3.0944c1.6671-0.6157,3.3605-1.241,4.7076-1.7386c0.2358-0.8111,0.3596-1.2903,0.5145-1.7592
	c0.3409-1.0319-0.2318-1.8419-1.2484-1.5148C16.9091,2.5027,15.3089,3.2757,13.8422,3.8818z M34.918,16.2722
	c-0.5678,1.3091-1.0623,2.5319-1.6246,3.7226c-0.5922,1.2541-1.2492,2.4775-1.996,3.9467c1.1076-0.384,2.2014,0.5653,2.9235-0.6799
	c0.3665-0.632,0.812-1.2176,1.1942-1.8412C36.3392,19.9126,36.1486,17.8218,34.918,16.2722z M32.0054,26.0439
	c-0.0402-0.1135-0.0804-0.227-0.1207-0.3405c-1.0171,0.289-2.2666,0.3027-3.0032,0.9242c-1.5463,1.3047-2.8231,2.9288-4.4349,4.6632
	C27.3752,29.7269,30.15,28.532,32.0054,26.0439z M5.361,32.1872c0.0024,0.143,0.0048,0.2859,0.0072,0.4289
	c0.7492,0,1.4989,0.0114,2.247-0.0168c0.0793-0.003,0.2387-0.2711,0.2062-0.359c-0.0719-0.1945-0.2055-0.4237-0.3788-0.5133
	C6.6107,31.297,5.9516,31.6355,5.361,32.1872z"/>
</svg>
