<?xml version="1.0" encoding="utf-8"?>
<!-- Generator: Adobe Illustrator 18.0.0, SVG Export Plug-In . SVG Version: 6.00 Build 0)  -->
<!DOCTYPE svg PUBLIC "-//W3C//DTD SVG 1.1//EN" "http://www.w3.org/Graphics/SVG/1.1/DTD/svg11.dtd">
<svg version="1.1" id="Livello_1" xmlns="http://www.w3.org/2000/svg" xmlns:xlink="http://www.w3.org/1999/xlink" x="0px" y="0px"
	 viewBox="0 0 73.6369 80.4749" enable-background="new 0 0 73.6369 80.4749" xml:space="preserve">
<g>
	<path fill="#FFFFFF" d="M52.0789,49.1645c-0.1842-2.7056,0.6464-5.114,1.383-7.5678c0.4353-1.4499,1.222-2.7139,1.7198-4.1145
		c0.3501-0.985,0.6748-1.9794,1.0423-2.9578c0.7404-1.9711,1.529-3.9246,2.2418-5.9054c0.28-0.7782,0.9061-1.5169,0.4762-2.4457
		c-0.0144-0.0311,0.0267-0.1025,0.0597-0.139c1.0596-1.1701,1.0018-2.7244,1.4021-4.1177c0.3167-1.1024,0.5709-2.2244,0.8129-3.3463
		c0.6649-3.0819,0.9477-6.1838,0.366-9.3147c-0.1335-0.7187-1.0239-1.1951-1.6176-0.8028c-0.5509,0.364-1.1054,0.8179-1.4644,1.3605
		c-1.8158,2.7441-2.7861,5.8799-3.966,8.9121c-1.0875,2.7949-1.974,5.67-3.1111,8.4433c-1.3885,3.3864-2.9183,6.7161-4.4426,10.0449
		c-0.7235,1.5799-1.46,3.1765-2.4069,4.6241c-0.751,1.1482-1.7956,2.1178-2.7904,3.0836c-0.2516,0.2443-0.8149,0.2262-1.2269,0.2003
		c-0.0892-0.0056-0.2218-0.569-0.2007-0.866c0.0924-1.2999,0.1989-2.601,0.3669-3.8929c0.1907-1.4669,0.4072-2.9335,0.6967-4.3835
		c0.2505-1.2544,0.6413-2.4802,0.9266-3.7286c0.167-0.7311,0.219-1.488,0.377-2.2217c0.1729-0.8032,0.4397-1.5864,0.6097-2.3901
		c0.3305-1.5625,0.6996-3.123,0.9059-4.7035c0.1776-1.3608,0.1231-2.7504,0.2268-4.123c0.052-0.6887,0.337-1.3695,0.3278-2.0514
		c-0.0305-2.251-0.0216-4.5145-0.2649-6.7473c-0.2596-2.3825-0.7915-4.7352-1.1974-7.1021
		c-0.0555-0.3236-0.1587-0.676-0.0849-0.9771c0.1561-0.6369-0.3024-0.8976-0.6878-1.0048c-0.233-0.0648-0.6748,0.2478-0.8756,0.5055
		c-0.8313,1.067-1.0001,2.3987-1.313,3.6595c-0.618,2.4898-1.2021,4.9885-1.7591,7.4926c-0.6152,2.7657-1.1692,5.5449-1.7806,8.3115
		c-0.2748,1.2437-0.6147,2.4735-0.9425,3.7049c-0.4216,1.5838-0.8107,3.1787-1.3045,4.7401
		c-0.6844,2.1642-1.4113,4.3174-2.2008,6.4453c-0.5205,1.4027-1.1177,2.7864-1.8035,4.1151
		c-0.5233,1.0139-1.2226,1.9401-1.8785,2.881c-0.2584,0.3706-0.5415,0.2147-0.6729-0.1414c-0.1797-0.487-0.357-0.9835-0.4528-1.4915
		c-0.3862-2.0485-0.783-4.0968-1.0896-6.158c-0.1595-1.0723-0.154-2.1708-0.1973-3.2585c-0.0961-2.413-0.1902-4.8263-0.2573-7.2402
		c-0.0436-1.5705-0.0064-3.1435-0.0636-4.7132c-0.0569-1.5632-0.1854-3.1237-0.2846-4.6853
		c-0.0728-1.146-0.1028-2.2975-0.2424-3.4354c-0.0769-0.6264-0.3609-1.225-0.5121-1.8457
		c-0.0776-0.3185-0.0861-0.6575-0.0957-0.9882c-0.0809-2.7869-1.0427-5.3783-1.7992-8.0115
		c-0.2695-0.9382-0.9703-1.0853-1.6493-0.3494c-0.4172,0.4522-0.7979,1.0255-0.9601,1.6096
		c-0.5767,2.0765-1.2126,4.1573-1.5268,6.2808c-0.409,2.7641-0.5752,5.5676-0.7625,8.3598
		c-0.1129,1.6834-0.0991,3.3776-0.0856,5.0665c0.0193,2.4045,0.1175,4.8084,0.1334,7.2129
		c0.0233,3.5225,0.0958,7.0485-0.0252,10.5671c-0.1107,3.2195-0.332,6.446-0.7349,9.6404
		c-0.2309,1.8307-0.8914,3.6121-1.4183,5.3981c-0.2024,0.686-0.5154,1.3555-0.8785,1.9736
		c-0.4012,0.683-1.4333,0.6468-1.8115-0.0408c-0.6755-1.228-1.3183-2.4533-1.6704-3.8486
		c-0.3419-1.3549-1.0049-2.6267-1.4907-3.9482c-0.3075-0.8365-0.4989-1.7173-0.8294-2.5434
		C8.4084,43.9076,7.89,41.4499,6.482,39.3751c-0.7042-1.0377-1.4495-2.0539-2.2509-3.0177
		c-1.0925-1.3139-2.8276-1.0212-3.6243,0.4903c-0.6803,1.2905-0.6403,2.6594-0.5699,4.0194
		c0.1539,2.9728,0.2767,5.9547,0.6248,8.9078c0.3711,3.1482,1.1644,6.2219,2.2881,9.1997c0.6553,1.7366,1.2142,3.5133,1.947,5.2159
		c1.2242,2.8445,2.6619,5.578,4.7598,7.9051c0.6169,0.6843,1.1688,1.4413,1.8561,2.0447c1.0353,0.9089,2.1141,1.7876,3.2655,2.5395
		c1.2059,0.7875,2.5032,1.4419,3.7893,2.0981c2.5273,1.2893,5.1823,1.8207,8.0542,1.673c2.7358-0.1407,5.402-0.4268,7.9885-1.3661
		c1.6385-0.595,3.342-1.0204,4.955-1.6734c1.434-0.5806,2.5303-1.6602,3.531-2.8487c0.3903-0.4636,1.0837-0.6592,1.5386-1.0843
		c0.5878-0.5495,1.0791-1.2031,1.6046-1.8183c1.0195-1.1935,2.0576-2.3722,3.0432-3.5932c0.8757-1.0849,1.7366-2.1531,2.1837-3.5518
		c0.3207-1.003,1.0929-1.857,1.6285-2.7975c0.4301-0.7553,0.7646-1.5671,1.2201-2.3053c0.4693-0.7605,1.0127-1.4786,1.5607-2.1866
		c1.4637-1.891,2.9489-3.7653,4.4223-5.6488c1.0576-1.352,2.0955-2.7197,3.1687-4.0592c1.2156-1.5174,2.5173-2.9692,3.6747-4.5288
		c0.8854-1.193,1.6175-2.5014,2.3936-3.7733c0.5774-0.9462,1.1975-1.8791,1.6534-2.8838c0.7245-1.5966,1.5144-3.1733,1.7368-4.9642
		c0.1591-1.281,0.5985-2.5339,0.6875-3.8149c0.0748-1.0759-0.0187-2.2221-0.3298-3.2486c-0.2737-0.9029-0.9841-1.2784-1.8635-0.4974
		c-1.0325,0.9169-1.9021,2.0609-2.6714,3.2199c-1.0483,1.5793-1.9016,3.2864-2.8978,4.9022
		c-2.0372,3.3044-4.0719,6.6119-6.1887,9.8654c-1.5115,2.3231-3.1985,4.5301-5.2156,6.4479
		C53.8197,48.8368,53.0873,49.3778,52.0789,49.1645z M71.9994,25.0714c0.1312,1.2154,0.4354,2.3337,0.3218,3.4078
		c-0.1452,1.3728-0.6924,2.6979-0.9479,4.0657c-0.3122,1.6719-0.9561,3.2102-1.8102,4.6413
		c-1.0975,1.8389-2.2828,3.6313-3.5241,5.377c-1.4672,2.0634-2.9732,4.1058-4.5755,6.0648
		c-1.6412,2.0065-3.4206,3.8999-5.1358,5.846c-0.303,0.3438-0.6115,0.6868-0.8771,1.0589
		c-1.1059,1.5494-2.0528,3.2001-3.2774,4.6809c-0.7937,0.9598-1.1728,2.2503-1.8616,3.3122
		c-0.8517,1.313-1.5917,2.6748-2.7268,3.8412c-1.4721,1.5128-2.602,3.3585-3.9209,5.1164
		c-0.0527,0.0027-0.3354-0.0699-0.4831,0.0396c-0.8358,0.6198-1.7152,1.209-2.4379,1.9475
		c-1.4616,1.4936-3.3697,2.1549-5.2319,2.8073c-1.6899,0.592-3.5113,0.8056-5.271,1.2025
		c-2.3603,0.5324-4.7584,0.5373-7.1033,0.1294c-2.4523-0.4266-4.6673-1.6008-6.7738-2.9119
		c-2.1331-1.3277-4.015-2.9818-5.5851-4.9342c-1.0437-1.2978-1.9961-2.6982-2.7885-4.1615
		c-0.9747-1.7998-1.8015-3.6879-2.5781-5.5845c-0.6919-1.6897-1.3198-3.4177-1.8078-5.1755
		c-0.5031-1.8123-0.8311-3.6756-1.1855-5.5262c-0.53-2.7679-0.8094-5.5665-0.754-8.3849c0.0301-1.5287,0.1943-3.0548,0.3092-4.7467
		c0.5453,0.2607,0.9245,0.3434,1.1618,0.5728c0.9438,0.9122,1.945,1.7881,2.3742,3.1058c0.0977,0.3,0.3232,0.5574,0.4822,0.8387
		c0.1593,0.2817,0.3338,0.5585,0.4567,0.8561c0.1568,0.3798,0.2565,0.7828,0.4021,1.1677c0.4475,1.1827,0.8438,2.3906,1.3829,3.5305
		c0.3039,0.6425-0.0307,1.3001,0.2842,1.9259c0.3565,0.7084,0.6041,1.4735,0.8746,2.2227c0.7028,1.9464,1.2551,3.9613,2.1234,5.8299
		c0.9727,2.0933,3.1947,2.2755,4.8427,0.4309c1.0616-1.1883,1.1943-2.6957,1.6235-4.0435c0.6578-2.0653,0.8239-4.2911,1.1516-6.456
		c0.1767-1.1674,0.3184-2.3472,0.3637-3.5257c0.0744-1.9327,0.0623-3.8688,0.0775-5.8036c0.0154-1.9551,0.0391-3.9104,0.0221-5.8653
		c-0.0123-1.4196-0.1104-2.8384-0.125-4.258c-0.025-2.4354-0.0257-4.8712-0.0159-7.3067c0.0083-2.0507,0.0493-4.1013,0.0699-6.1521
		c0.0275-2.7376,0.4472-5.4305,1.0647-8.083c0.312-1.3401,0.8898-2.6184,1.3474-3.9246c0.098-0.0074,0.1961-0.0147,0.2941-0.0221
		c0.7463,2.7923,1.4925,5.5846,2.1786,8.1514c-0.0002,0.5607-0.0607,0.9565,0.0149,1.3243
		c0.0957,0.4657,0.5665,1.0539,0.4122,1.3347c-0.5048,0.9189,0.1058,1.7757-0.0234,2.6885
		c-0.1455,1.0281,0.0804,2.1593,0.0462,3.2578c-0.0299,0.9616,0.1786,1.9286,0.1847,2.8939
		c0.0103,1.6461-0.0924,3.2929-0.0793,4.9389c0.0139,1.7404,0.0999,3.4804,0.169,5.22c0.0499,1.2545,0.0824,2.5119,0.1974,3.7612
		c0.1426,1.5487,0.314,3.0981,0.5637,4.6325c0.2068,1.2712,0.4965,2.5347,0.8463,3.7743c0.1684,0.5968,1.7595,1.0272,2.1282,0.6133
		c0.6693-0.7513,1.3946-1.4975,1.8664-2.3702c0.8301-1.5352,1.5559-3.1367,2.2004-4.76c1.005-2.531,2.0636-5.0581,2.8127-7.6692
		c1.067-3.7189,1.8961-7.5072,2.7857-11.2755c0.6439-2.7277,1.1881-5.4791,1.838-8.2053c0.5311-2.2278,1.1527-4.434,1.7413-6.677
		c0.1218,0.0659,0.2442,0.0938,0.2532,0.1426c0.1648,0.8935,0.371,1.7842,0.4576,2.6861c0.1437,1.4964,0.714,2.9263,0.6092,4.4671
		c-0.0411,0.6037,0.2885,1.2287,0.2695,1.8384c-0.0698,2.2395-0.203,4.4774-0.3369,6.7145
		c-0.0671,1.121-0.1075,2.2528-0.2993,3.3554c-0.4421,2.5422-0.9242,5.0795-1.4765,7.5999
		c-0.4262,1.9447-1.0821,3.8415-1.459,5.7938c-0.5179,2.6825-0.9128,5.3913-1.2769,8.1c-0.2836,2.1103,1.0511,2.6159,2.3028,2.1878
		c1.0683-0.3654,2.1686-1.0754,2.889-1.9383c2.2962-2.7505,3.6586-6.08,5.2787-9.2385c0.8188-1.5962,1.4132-3.3081,2.0994-4.9717
		c0.4493-1.0892,0.8644-2.1927,1.3259-3.2766c0.4418-1.0376,0.6268-2.1547,1.1229-3.1859c0.5345-1.1111,0.8656-2.3212,1.2713-3.493
		c0.6596-1.9048,1.2652-3.8298,1.9786-5.714c0.3546-0.9364,0.8757-1.8138,1.3634-2.6947c0.4131-0.7461,0.8864-1.4588,1.3331-2.1863
		c0.0961,0.0306,0.1922,0.0611,0.2882,0.0917c0.1344,0.7734,0.3945,1.549,0.381,2.3199c-0.0515,2.9462-0.5492,5.8302-1.1596,8.7182
		c-0.7856,3.7169-2.0676,7.257-3.3868,10.7909c-1.3314,3.5665-2.806,7.0798-4.118,10.6531
		c-0.7255,1.9758-1.2416,4.0238-1.2914,6.1617c-0.0385,1.6557,1.1821,2.4394,2.738,1.8263c1.7014-0.6704,2.8916-1.933,3.8954-3.3313
		c2.1699-3.0225,4.2494-6.1119,6.2932-9.2218c0.9485-1.4432,1.6898-3.0208,2.5923-4.4964c1.0193-1.6667,2.1949-3.2418,3.1497-4.9425
		C69.9215,27.3346,70.7058,26.1529,71.9994,25.0714z"/>
</g>
</svg>
