<?xml version="1.0" encoding="utf-8"?>
<!-- Generator: Adobe Illustrator 18.0.0, SVG Export Plug-In . SVG Version: 6.00 Build 0)  -->
<!DOCTYPE svg PUBLIC "-//W3C//DTD SVG 1.1//EN" "http://www.w3.org/Graphics/SVG/1.1/DTD/svg11.dtd">
<svg version="1.1" id="Livello_1" xmlns="http://www.w3.org/2000/svg" xmlns:xlink="http://www.w3.org/1999/xlink" x="0px" y="0px"
	 viewBox="0 0 696.2665 428.5569" enable-background="new 0 0 696.2665 428.5569" xml:space="preserve">

		<path class="svg-animate" fill="#FFFFFF" d="M205.0308,260.7567c29.5209-14.6716,59.0418-29.3432,88.5626-44.0148
			c15.3548-7.6312,29.6234-15.8211,47.3184-12.0571c7.4217,1.5787,14.5933,4.5077,21.7339,7.016
			c7.9209,2.7825,15.8417,5.565,23.7626,8.3475c4.9078,1.724,10.1936,4.6496,15.0376,1.437
			c2.2118-1.4669,3.8455-4.1408,5.4774-6.1615c2.9132-3.6073,5.8264-7.2146,8.7396-10.8218
			c9.8235-12.164,19.4705-24.4995,29.5562-36.4477c8.3647-9.9093,17.7206-19.3345,29.6-24.9078
			c13.7824-6.466,28.813-3.6364,41.8889,3.0196c15.3814,7.8295,28.291,20.1384,41.6258,30.8965
			c13.6981,11.0512,27.6658,21.7735,42.0771,31.8807c28.5115,19.9961,59.1638,37.181,92.3268,48.121
			c1.8425,0.6078,2.6257-2.2897,0.7975-2.8928c-56.4148-18.6105-103.736-55.1524-149.1177-92.3297
			c-19.0737-15.6254-42.4086-31.8314-68.05-22.5603c-11.1143,4.0186-20.2472,12.3471-28.1587,20.8543
			c-10.128,10.8905-19.0881,22.9539-28.4248,34.5151c-6.3423,7.8534-12.3743,16.1735-19.1951,23.6142
			c-3.8802,4.2328-12.7268-0.8789-17.039-2.3938c-4.8744-1.7123-9.7487-3.4246-14.6231-5.1369
			c-9.5699-3.3618-19.1091-7.2176-29.0522-9.3327c-8.7761-1.8668-17.2715-0.7236-25.6245,2.3042
			c-8.8812,3.2193-17.2722,8.011-25.7134,12.2062c-9.4467,4.6949-18.8934,9.3898-28.34,14.0847
			c-18.8934,9.3898-37.7867,18.7796-56.6801,28.1694C201.784,259.0274,203.3043,261.6148,205.0308,260.7567L205.0308,260.7567z"/>

		<path class="svg-animate" fill="#FFFFFF" d="M210.6565,12.3387c-0.2023,4.8254,1.5968,8.8881,4.9727,12.2838
			c1.5056,1.5144,3.4609,2.4265,5.4172,3.1865c2.4261,0.9425,3.2166-0.309,4.8439-2.0893
			c6.2399-6.8269,5.3604-17.6803-3.8714-20.9651c-8.7973-3.1302-14.4593,9.7995-10.993,16.5035
			c4.6073,8.9106,18.1289,6.8765,22.3649-1.225c5.5449-10.6049-7.5878-15.8305-15.7575-15.058
			c-9.9427,0.9402-18.3937,8.5016-21.3277,17.8355c-2.8993,9.2235,5.3612,15.2921,13.4784,10.7371
			c5.62-3.1537,8.7351-19.337,0.9371-21.368c-2.9247-0.7618-4.8695,3.9982-5.2254,6.0625
			c-0.6581,3.8172,1.4695,7.9359,4.7383,9.9049c4.813,2.8992,10.3798,3.4451,15.8674,3.9889
			c5.9166,0.5863,12.9088,1.4427,18.246-1.707c3.477-2.0519,4.7866-7.0326,5.1952-10.7162
			c0.6095-5.4947-0.5555-9.5408-5.0856-12.8554c-8.2175-6.0125-21.1481-3.0315-29.3322,1.2532
			c-8.9035,4.6613-17.4499,14.7936-17.3631,25.2542c0.0901,10.8643,17.0589,12.2411,24.4743,12.0137
			c12.0911-0.3707,22.0441-7.8445,24.2236-19.8397c1.4472-7.9648,0.9334-24.6509-10.4318-25.4995
			c-10.0973-0.7539-16.593,9.5273-20.0095,17.6525c-3.4055,8.0991-4.6731,18.6794,4.2227,23.5205
			c5.56,3.0258,18.0257,4.5929,20.7918-2.6905c3.6247-9.5439,6.2782-22.9047,0.8645-32.2531
			c-4.2027-7.2572-14.0637-6.8792-20.6752-3.8603c-9.1692,4.1868-12.9326,15.7201-15.514,24.5918
			c-2.9203,10.0363,0.5073,18.005,10.6612,21.3078c7.6733,2.4959,16.4169-0.0356,21.1918-6.4967
			c1.1515-1.5582-1.4541-3.0517-2.5904-1.5142c-4.1744,5.6486-11.3382,6.7684-17.8038,5.118
			c-4.4442-1.1344-8.1907-4.1456-9.4472-8.6242c-1.1904-4.2429,0.9849-9.5375,2.2831-13.5566
			c2.1833-6.7592,5.4357-13.628,11.5861-17.6082c7.2309-4.6794,16.723-2.3933,19.438,6.0384
			c2.3001,7.1434,0.1859,16.2462-1.871,23.167c-1.4982,5.0409-4.0138,5.6088-8.8811,5.4606
			c-4.1009-0.1249-8.2336-0.8362-11.3706-3.6574c-5.8466-5.2581-1.0246-16.4663,1.8344-22.0354
			c3.9497-7.6935,14.4814-17.3573,21.1989-6.8056c3.9679,6.2327,2.4614,17.8354-0.6377,24.1027
			c-4.1119,8.3157-14.4212,10.6454-22.8046,10.5088c-7.2516-0.1182-19.0893-2.5252-17.513-12.2015
			c1.1324-6.9511,6.6662-13.2324,12.1092-17.2756c9.6662-7.1803,36.3559-11.6391,33.2936,7.7215
			c-1.5685,9.9164-10.6344,9.1382-18.5096,8.6313c-6.7188-0.4324-21.0241-1.3252-19.3013-11.317
			c0.3902-2.4775,1.3582-2.7738,2.9039-0.8888c0.3224,1.3297,0.5151,2.6796,0.5781,4.0497
			c0.2814,3.6077-0.7798,7.5697-3.7861,9.8325c-1.9731,1.4851-4.8782,1.6082-7.0796,0.6676
			c-4.4161-1.8869-2.0884-8.4134-0.654-11.4934c4.4433-9.5411,17.4635-15.3986,27.1984-10.6481
			c4.1211,2.011,4.2296,6.8096,2.3885,10.3307c-2.0127,3.8493-7.3503,4.637-11.1133,4.0092
			c-8.9122-1.4869-6.9725-18.0913,2.2114-16.1758c7.9718,1.6627,6.1458,11.3122,2.5476,15.9509
			c-2.1895,2.8227-5.1431-0.2167-7.0024-2.0868c-2.418-2.4321-3.2485-5.873-3.1102-9.1728
			C213.7376,10.4036,210.7372,10.4114,210.6565,12.3387L210.6565,12.3387z"/>

		<path class="svg-animate" fill="#FFFFFF" d="M694.829,313.6725c-120.4052-11.6241-242.1088-7.163-361.4214,12.6615
			c-114.4779,19.0212-226.4988,52.5517-332.6232,99.4892c-1.7661,0.7811-0.2381,3.3654,1.5142,2.5904
			c111.4849-49.3083,229.4209-83.4994,349.8834-102.0654c113.2177-17.4494,228.629-20.683,342.6471-9.6756
			C696.7547,316.8584,696.7368,313.8567,694.829,313.6725L694.829,313.6725z"/>

</svg>
