<?xml version="1.0" encoding="utf-8"?>
<!-- Generator: Adobe Illustrator 18.0.0, SVG Export Plug-In . SVG Version: 6.00 Build 0)  -->
<!DOCTYPE svg PUBLIC "-//W3C//DTD SVG 1.1//EN" "http://www.w3.org/Graphics/SVG/1.1/DTD/svg11.dtd">
<svg version="1.1" id="Livello_1" xmlns="http://www.w3.org/2000/svg" xmlns:xlink="http://www.w3.org/1999/xlink" x="0px" y="0px"
	 viewBox="0 0 498.9021 260.7" enable-background="new 0 0 498.9021 260.7" xml:space="preserve">
<g>
	<g>
		<g>
			<path fill="#FFFFFF" d="M9.3579,260.528c29.5209-14.6716,59.0418-29.3432,88.5626-44.0148
				c15.3548-7.6312,29.6234-15.8212,47.3184-12.0571c7.4217,1.5787,14.5933,4.5077,21.7339,7.016
				c7.9209,2.7825,15.8417,5.565,23.7626,8.3475c4.9078,1.724,10.1936,4.6496,15.0376,1.437
				c2.2118-1.4669,3.8455-4.1408,5.4774-6.1615c2.9132-3.6073,5.8264-7.2146,8.7396-10.8219
				c9.8235-12.164,19.4704-24.4995,29.5562-36.4477c8.3647-9.9093,17.7206-19.3345,29.6-24.9078
				c13.7824-6.466,28.813-3.6364,41.8889,3.0196c15.3814,7.8295,28.291,20.1384,41.6258,30.8965
				c13.6982,11.0512,27.6658,21.7735,42.0771,31.8807c28.5116,19.9961,59.1638,37.1809,92.3268,48.121
				c1.8425,0.6078,2.6258-2.2897,0.7975-2.8928c-56.4149-18.6105-103.736-55.1524-149.1177-92.3297
				c-19.0736-15.6254-42.4086-31.8314-68.05-22.5603c-11.1143,4.0186-20.2472,12.3471-28.1587,20.8543
				c-10.1279,10.8905-19.0881,22.9539-28.4247,34.5151c-6.3423,7.8534-12.3743,16.1735-19.1952,23.6142
				c-3.8802,4.2328-12.7268-0.8789-17.039-2.3938c-4.8744-1.7123-9.7487-3.4246-14.6231-5.1369
				c-9.5699-3.3618-19.1091-7.2176-29.0522-9.3327c-8.7761-1.8668-17.2715-0.7236-25.6245,2.3042
				c-8.8812,3.2193-17.2722,8.011-25.7134,12.2062c-9.4467,4.6949-18.8934,9.3898-28.34,14.0847
				c-18.8934,9.3898-37.7867,18.7796-56.6801,28.1694C6.1111,258.7987,7.6313,261.386,9.3579,260.528L9.3579,260.528z"/>
		</g>
	</g>
	<g>
		<g>
			<path fill="#FFFFFF" d="M15.2096,11.9176c-0.2911,4.8241,1.4538,8.909,4.7658,12.3651c1.478,1.5422,3.4239,2.478,5.365,3.2734
				c2.4013,0.984,3.227-0.2894,4.8746-2.0269c6.3807-6.7284,5.6236-17.5726-3.5318-21.0209
				c-8.7564-3.2981-14.5817,9.594-11.2541,16.3302c4.451,9.0102,18.0109,7.1408,22.3841-0.8616
				C43.5565,9.4675,30.443,4.0357,22.2934,4.6555c-9.9668,0.758-18.529,8.1955-21.6318,17.4675
				c-3.0769,9.1946,5.1251,15.3401,13.3104,10.9427c3.8208-2.0527,5.0919-6.8889,5.4572-10.8378
				c0.33-3.5675-0.097-9.3599-4.1781-10.5033c-2.9018-0.813-4.9276,3.9653-5.317,5.9995c-0.7292,3.8099,1.3628,7.9542,4.5868,9.9779
				c4.7608,2.9882,10.3157,3.621,15.7953,4.2659c5.9183,0.6965,12.8666,1.6712,18.2707-1.3855
				c3.5122-1.9866,4.8927-6.9679,5.3675-10.6329c0.7133-5.5054-0.415-9.5443-4.8725-12.9332
				c-8.1038-6.161-21.1053-3.3835-29.3506,0.742c-8.9959,4.5011-17.695,14.4807-17.8004,24.9448
				C1.8214,43.5562,18.8076,45.2279,26.2081,45.137c12.0924-0.1485,22.1663-7.4737,24.564-19.4181
				c1.6048-7.9945,1.3492-24.6036-9.9967-25.6606C30.9179-0.86,23.7167,9.2451,20.465,17.367
				c-3.2775,8.1865-5.1805,18.4665,3.8211,23.5817c5.523,3.1385,17.9138,4.9036,20.8216-2.3487
				c3.7986-9.4737,6.6743-22.7871,1.4355-32.2292c-4.07-7.3357-13.9568-7.0938-20.6111-4.2019
				C16.6934,6.1841,12.7258,17.6733,9.9854,26.4846C6.8693,36.504,10.1933,44.476,20.2875,47.9656
				c7.6336,2.639,16.4061,0.23,21.2952-6.1376c1.1785-1.5348-1.4296-3.026-2.5904-1.5142
				c-4.2835,5.5788-11.4784,6.5263-17.9072,4.7589c-4.8381-1.3301-8.7881-4.8574-9.4048-10.0083
				c-0.4871-4.0691,1.3843-8.5366,2.6834-12.3192c2.3089-6.7233,5.703-13.514,11.924-17.3796
				c7.3307-4.5551,16.7443-2.0555,19.307,6.4348c2.1769,7.2121-0.1164,16.2127-2.3109,23.1285
				c-1.529,4.8186-4.4071,5.4941-8.9999,5.2698c-4.1037-0.2005-8.206-1.0043-11.2933-3.8851
				c-5.7425-5.3585-0.6693-16.5222,2.2723-22.002c4.0859-7.6113,14.7885-17.0552,21.3199-6.3675
				c3.8687,6.3305,2.1232,17.8432-1.1081,24.0867c-4.261,8.2331-14.6361,10.3545-23.0072,10.0642
				c-7.2733-0.2523-19.0061-2.8932-17.2508-12.5474c1.2611-6.9358,6.9206-13.0921,12.4409-17.0374
				c9.8397-7.0325,36.527-10.9002,33.1147,8.3719c-1.7486,9.8756-10.8366,8.9132-18.685,8.2631
				c-6.726-0.5571-20.9615-1.7353-19.0551-11.6959c0.4594-2.4807,1.4325-2.7414,2.9192-0.7822
				c0.2987,1.339,0.4641,2.6925,0.4963,4.0606c0.2159,3.6262-0.9378,7.5369-3.9898,9.7474
				c-2.0195,1.4627-4.8892,1.4984-7.0904,0.5096c-4.44-1.9943-1.8772-8.4978-0.405-11.513
				C9.5863,10.0015,22.7225,4.438,32.3614,9.3629c4.0904,2.0899,4.0598,6.907,2.1606,10.3824
				c-2.0846,3.8146-7.4579,4.4679-11.1974,3.7731c-8.8733-1.6485-6.6012-18.2047,2.5612-16.1173
				c7.9274,1.806,5.8835,11.444,2.208,16.0068c-2.2334,2.7726-5.1537-0.3666-6.9625-2.254
				c-2.3714-2.4746-3.1201-5.9465-2.9216-9.2363C18.3262,9.9844,15.3256,9.9956,15.2096,11.9176L15.2096,11.9176z"/>
		</g>
	</g>
</g>
</svg>
